<svg width="24" height="24" viewBox="0 0 24 24" fill="none" xmlns="http://www.w3.org/2000/svg">
<g id="exclusive 1">
<path id="Exclusive" d="M10.336 19.0995L9.23825 22.5753C9.2055 22.6793 9.10925 22.75 9 22.75H4.5C4.4205 22.75 4.3455 22.712 4.29825 22.6478C4.251 22.5835 4.2375 22.5007 4.26175 22.4247L6.03525 16.8088C6.0955 16.9493 6.1505 17.1068 6.20475 17.2625C6.3885 17.791 6.59675 18.3897 7.12375 18.6947C7.6435 18.9955 8.26175 18.8783 8.8065 18.7755C9.15075 18.7102 9.5065 18.6432 9.73475 18.7043C9.909 18.7505 10.1218 18.9173 10.336 19.0995ZM17.9648 16.8085C17.9045 16.949 17.8492 17.1068 17.795 17.2628C17.6112 17.791 17.403 18.39 16.8762 18.6947C16.3565 18.9955 15.7382 18.8787 15.1935 18.7755C14.8487 18.7102 14.493 18.6438 14.2653 18.704C14.091 18.7507 13.8782 18.9173 13.664 19.0995L14.7615 22.5753C14.7945 22.6793 14.8907 22.75 15 22.75H19.5C19.5795 22.75 19.6545 22.712 19.7017 22.6478C19.749 22.5835 19.7625 22.5007 19.7383 22.4247L17.9648 16.8085ZM17.25 10.25C17.25 13.1448 14.8948 15.5 12 15.5C9.10525 15.5 6.75 13.1448 6.75 10.25C6.75 7.35525 9.10525 5 12 5C14.8948 5 17.25 7.35525 17.25 10.25ZM15.237 9.2125C15.2073 9.12375 15.1302 9.059 15.0378 9.04475L13.0965 8.748L12.2262 6.89375C12.185 6.80625 12.097 6.75 12 6.75C11.903 6.75 11.815 6.80625 11.7738 6.89375L10.9035 8.748L8.96225 9.04475C8.86975 9.059 8.79275 9.1235 8.763 9.2125C8.73325 9.3015 8.75575 9.39925 8.821 9.4665L10.2257 10.9062L9.75625 12.944C9.7345 13.0388 9.76975 13.1375 9.84625 13.1975C9.92275 13.2572 10.0275 13.2673 10.1138 13.2227L12 12.256L13.886 13.2222C13.9218 13.241 13.9613 13.25 14 13.25C14.0548 13.25 14.109 13.2323 14.1535 13.1973C14.2302 13.1375 14.2653 13.0385 14.2435 12.9438L13.774 10.906L15.1788 9.46625C15.2445 9.39925 15.2668 9.30125 15.237 9.2125ZM19.4877 12.2577C19.368 12.7052 19.4567 13.175 19.5427 13.6295C19.6135 14.0033 19.6938 14.4272 19.579 14.6255C19.4603 14.8305 19.048 14.9742 18.684 15.1005C18.2515 15.251 17.8037 15.4065 17.4807 15.7295C17.1567 16.0538 17.0013 16.5013 16.8507 16.934C16.724 17.298 16.5807 17.71 16.376 17.8288C16.351 17.843 16.2763 17.8862 16.082 17.8862C15.8758 17.8862 15.6237 17.8387 15.38 17.7925C15.1005 17.7395 14.7843 17.6798 14.4803 17.6798C14.3083 17.6798 14.154 17.6985 14.0095 17.7367C13.5752 17.8533 13.2218 18.1588 12.8798 18.4545C12.5695 18.723 12.2493 19 12 19C11.7502 19 11.43 18.723 11.12 18.4545C10.778 18.1588 10.4242 17.853 9.992 17.7377C9.847 17.699 9.69175 17.6803 9.51825 17.6803C9.21525 17.6803 8.899 17.74 8.62 17.793C8.375 17.8392 8.123 17.8867 7.917 17.8867C7.7235 17.8867 7.6485 17.8433 7.624 17.8293C7.41875 17.7103 7.275 17.298 7.14875 16.934C6.99825 16.5015 6.84275 16.0538 6.51975 15.7308C6.1955 15.4067 5.748 15.2513 5.31525 15.1007C4.95125 14.974 4.53925 14.8308 4.4205 14.626C4.306 14.4278 4.386 14.0042 4.45675 13.6302C4.543 13.1733 4.63125 12.7048 4.512 12.258C4.39625 11.8258 4.0905 11.472 3.795 11.1302C3.527 10.8195 3.25 10.4993 3.25 10.25C3.25 10.0002 3.527 9.68 3.7955 9.37C4.09125 9.028 4.397 8.67425 4.51225 8.242C4.632 7.7945 4.54325 7.32475 4.45725 6.87025C4.3865 6.4965 4.30625 6.0725 4.421 5.87425C4.53975 5.66925 4.952 5.5255 5.316 5.39925C5.7485 5.24875 6.19625 5.09325 6.51925 4.77025C6.84325 4.446 6.99875 3.9985 7.14925 3.56575C7.276 3.20175 7.41925 2.78975 7.624 2.671C7.649 2.65675 7.724 2.61325 7.91825 2.61325C8.125 2.61325 8.3765 2.661 8.61975 2.70725C8.89875 2.76 9.21425 2.81975 9.51975 2.81975C9.69125 2.81975 9.84425 2.8015 9.98825 2.7635C10.4247 2.6465 10.7782 2.341 11.12 2.04525C11.4305 1.777 11.7507 1.5 12 1.5C12.2498 1.5 12.57 1.777 12.88 2.0455C13.222 2.34125 13.5758 2.647 14.008 2.76225C14.1528 2.80075 14.3075 2.81975 14.481 2.81975C14.7828 2.81975 15.0997 2.76 15.3792 2.70725C15.624 2.66075 15.8765 2.61325 16.0825 2.61325C16.276 2.61325 16.3512 2.65675 16.3757 2.67075C16.581 2.78975 16.7247 3.202 16.851 3.566C17.0015 3.9985 17.157 4.44625 17.48 4.76925C17.8042 5.09325 18.2517 5.24875 18.6845 5.39925C19.0485 5.526 19.4605 5.66925 19.5793 5.874C19.6938 6.07225 19.6137 6.49575 19.543 6.86975C19.4567 7.32675 19.3685 7.79525 19.4877 8.242C19.6035 8.67425 19.9093 9.028 20.2048 9.36975C20.473 9.6805 20.75 10.0007 20.75 10.25C20.75 10.4998 20.473 10.82 20.2045 11.13C19.909 11.472 19.603 11.8257 19.4877 12.2577ZM18.25 10.25C18.25 6.80375 15.4462 4 12 4C8.55375 4 5.75 6.80375 5.75 10.25C5.75 13.6962 8.55375 16.5 12 16.5C15.4462 16.5 18.25 13.6962 18.25 10.25Z" fill="#444444"/>
</g>
</svg>
