<svg width="10" height="20" viewBox="0 0 10 20" fill="none" xmlns="http://www.w3.org/2000/svg">
<path fill-rule="evenodd" clip-rule="evenodd" d="M5 18.25C3.10158 18.25 1.5625 16.7107 1.5625 14.8125V3.81113C1.5625 3.26456 1.77975 2.74 2.16613 2.35362C2.5525 1.96725 3.07683 1.75 3.62363 1.75H3.62638C4.76488 1.75 5.6875 2.67263 5.6875 3.81113V13.4389C5.6875 13.8177 5.38042 14.125 5.00138 14.125H5C4.6205 14.125 4.3125 13.817 4.3125 13.4375V5.1875C4.3125 4.808 4.0045 4.5 3.625 4.5C3.2455 4.5 2.9375 4.808 2.9375 5.1875V13.4375C2.9375 14.5767 3.86104 15.5 5 15.5H5.00138C6.13988 15.5 7.0625 14.5774 7.0625 13.4389V3.81113C7.0625 1.91363 5.52388 0.375 3.62638 0.375H3.62363C2.71246 0.375 1.83842 0.737312 1.194 1.3815C0.549584 2.02569 0.1875 2.8995 0.1875 3.81113V14.8125C0.1875 17.4704 2.34213 19.625 5 19.625C6.27646 19.625 7.50021 19.1183 8.40313 18.2156C9.30559 17.3129 9.8125 16.0892 9.8125 14.8125C9.8125 10.7624 9.8125 5.1875 9.8125 5.1875C9.8125 4.808 9.5045 4.5 9.125 4.5C8.7455 4.5 8.4375 4.808 8.4375 5.1875V14.8125C8.4375 15.7241 8.07542 16.5986 7.43055 17.2435C6.78613 17.8877 5.91163 18.25 5 18.25Z" fill="black"/>
</svg>
