<svg width="14" height="12" viewBox="0 0 14 12" fill="none" xmlns="http://www.w3.org/2000/svg">
<path d="M0.999998 5H11L7.71 1.71C7.61627 1.61704 7.54188 1.50644 7.49111 1.38458C7.44034 1.26272 7.4142 1.13201 7.4142 0.999999C7.4142 0.867987 7.44034 0.737282 7.49111 0.615422C7.54188 0.493563 7.61627 0.382962 7.71 0.289999C7.89736 0.103748 8.15081 -0.000793457 8.415 -0.000793457C8.67918 -0.000793457 8.93264 0.103748 9.12 0.289999L13.41 4.59C13.7856 4.96335 13.9978 5.47042 14 6C13.9951 6.5261 13.7832 7.0291 13.41 7.4L9.12 11.7C9.02676 11.7926 8.9162 11.8659 8.79463 11.9157C8.67306 11.9656 8.54286 11.991 8.41146 11.9906C8.28007 11.9901 8.15005 11.9638 8.02884 11.913C7.90762 11.8623 7.79758 11.7882 7.705 11.695C7.61242 11.6018 7.53911 11.4912 7.48925 11.3696C7.4394 11.2481 7.41398 11.1179 7.41444 10.9865C7.41491 10.8551 7.44125 10.7251 7.49196 10.6038C7.54267 10.4826 7.61676 10.3726 7.71 10.28L11 7H0.999998C0.734782 7 0.480427 6.89464 0.292891 6.70711C0.105354 6.51957 -1.90735e-06 6.26522 -1.90735e-06 6C-1.90735e-06 5.73478 0.105354 5.48043 0.292891 5.29289C0.480427 5.10536 0.734782 5 0.999998 5Z" fill="#575762"/>
</svg>
