<svg width="20" height="20" viewBox="0 0 20 20" fill="none" xmlns="http://www.w3.org/2000/svg">
<g id="categories 1">
<path id="Vector" d="M9.0625 3.4375V7.8125C9.0625 8.14402 8.9308 8.46196 8.69638 8.69638C8.46196 8.9308 8.14402 9.0625 7.8125 9.0625H3.4375C3.10598 9.0625 2.78804 8.9308 2.55362 8.69638C2.3192 8.46196 2.1875 8.14402 2.1875 7.8125V3.4375C2.1875 3.10598 2.3192 2.78804 2.55362 2.55362C2.78804 2.3192 3.10598 2.1875 3.4375 2.1875H7.8125C8.14402 2.1875 8.46196 2.3192 8.69638 2.55362C8.9308 2.78804 9.0625 3.10598 9.0625 3.4375ZM16.5625 2.1875H12.1875C11.856 2.1875 11.538 2.3192 11.3036 2.55362C11.0692 2.78804 10.9375 3.10598 10.9375 3.4375V7.8125C10.9375 8.14402 11.0692 8.46196 11.3036 8.69638C11.538 8.9308 11.856 9.0625 12.1875 9.0625H16.5625C16.894 9.0625 17.212 8.9308 17.4464 8.69638C17.6808 8.46196 17.8125 8.14402 17.8125 7.8125V3.4375C17.8125 3.10598 17.6808 2.78804 17.4464 2.55362C17.212 2.3192 16.894 2.1875 16.5625 2.1875ZM7.8125 10.9375H3.4375C3.10598 10.9375 2.78804 11.0692 2.55362 11.3036C2.3192 11.538 2.1875 11.856 2.1875 12.1875V16.5625C2.1875 16.894 2.3192 17.212 2.55362 17.4464C2.78804 17.6808 3.10598 17.8125 3.4375 17.8125H7.8125C8.14402 17.8125 8.46196 17.6808 8.69638 17.4464C8.9308 17.212 9.0625 16.894 9.0625 16.5625V12.1875C9.0625 11.856 8.9308 11.538 8.69638 11.3036C8.46196 11.0692 8.14402 10.9375 7.8125 10.9375ZM14.375 10.9375C13.6951 10.9375 13.0305 11.1391 12.4652 11.5168C11.8999 11.8945 11.4593 12.4314 11.1992 13.0595C10.939 13.6876 10.8709 14.3788 11.0036 15.0456C11.1362 15.7124 11.4636 16.3249 11.9443 16.8057C12.4251 17.2864 13.0376 17.6138 13.7044 17.7464C14.3712 17.8791 15.0624 17.811 15.6905 17.5508C16.3186 17.2907 16.8555 16.8501 17.2332 16.2848C17.6109 15.7195 17.8125 15.0549 17.8125 14.375C17.8125 13.4633 17.4503 12.589 16.8057 11.9443C16.161 11.2997 15.2867 10.9375 14.375 10.9375Z" fill="#0D0A0B"/>
</g>
</svg>
