<svg width="16" height="16" viewBox="0 0 16 16" fill="none" xmlns="http://www.w3.org/2000/svg">
<g id="check 1">
<g id="Group">
<path id="Vector" d="M8.00389 14.5009C5.53189 14.5011 3.25239 13.0846 2.16064 10.8551C1.05589 8.59838 1.39039 5.78388 2.99339 3.85163C4.59464 1.92138 7.19789 1.07913 9.62489 1.70588C9.89214 1.77488 10.0529 2.04763 9.98414 2.31513C9.91514 2.58263 9.64214 2.74313 9.37489 2.67438C7.32189 2.14413 5.11839 2.85663 3.76314 4.49038C2.40714 6.12513 2.12414 8.50638 3.05889 10.4159C3.99014 12.3179 6.04439 13.5569 8.15289 13.4994C10.2611 13.4419 12.1744 12.1596 13.0271 10.2329C13.5279 9.10138 13.6339 7.82013 13.3251 6.62488C13.2561 6.35763 13.4169 6.08488 13.6844 6.01563C13.9511 5.94638 14.2244 6.10738 14.2936 6.37488C14.6581 7.78713 14.5334 9.30113 13.9419 10.6376C12.9339 12.9151 10.6721 14.4309 8.18039 14.4989C8.12139 14.5001 8.06239 14.5009 8.00389 14.5009Z" fill="#0D0A0B"/>
</g>
<g id="Group_2">
<path id="Vector_2" d="M7.99994 9.56C7.87194 9.56 7.74394 9.51125 7.64644 9.4135C7.45119 9.21825 7.45119 8.90175 7.64644 8.7065L13.6464 2.7065C13.8414 2.51125 14.1584 2.51125 14.3534 2.7065C14.5487 2.90175 14.5487 3.21825 14.3534 3.4135L8.35344 9.4135C8.25594 9.511 8.12794 9.56 7.99994 9.56Z" fill="#0D0A0B"/>
</g>
<g id="Group_3">
<path id="Vector_3" d="M8.00009 9.56015C7.87209 9.56015 7.74409 9.5114 7.64659 9.41365L5.52534 7.2924C5.33009 7.09715 5.33009 6.78065 5.52534 6.5854C5.72034 6.39015 6.03734 6.39015 6.23234 6.5854L8.35359 8.70665C8.54884 8.9019 8.54884 9.2184 8.35359 9.41365C8.25609 9.51115 8.12809 9.56015 8.00009 9.56015Z" fill="#0D0A0B"/>
</g>
</g>
</svg>
