<svg width="20" height="20" viewBox="0 0 20 20" fill="none" xmlns="http://www.w3.org/2000/svg">
<g id="cross 1">
<path id="Vector" d="M4.74198 15.2578C6.19198 16.7058 8.09598 17.4318 9.99998 17.4318C11.904 17.4318 13.808 16.7078 15.258 15.2578C18.158 12.3578 18.158 7.64181 15.258 4.74381C12.36 1.84581 7.64198 1.84581 4.74398 4.74381C1.84398 7.64181 1.84398 12.3578 4.74198 15.2578ZM5.16598 5.16581C6.49798 3.83381 8.24798 3.16781 9.99998 3.16781C11.752 3.16781 13.5 3.83381 14.834 5.16581C17.5 7.83181 17.5 12.1678 14.834 14.8318C12.168 17.4958 7.83198 17.4958 5.16798 14.8318C2.50198 12.1678 2.50198 7.83181 5.16598 5.16581Z" fill="black"/>
<path id="Vector_2" d="M7.26599 12.7342C7.32399 12.7922 7.40199 12.8222 7.47799 12.8222C7.55399 12.8222 7.63199 12.7922 7.68999 12.7342L9.99999 10.4242L12.31 12.7342C12.368 12.7922 12.446 12.8222 12.522 12.8222C12.598 12.8222 12.676 12.7922 12.734 12.7342C12.852 12.6162 12.852 12.4262 12.734 12.3102L10.424 10.0002L12.734 7.69023C12.852 7.57223 12.852 7.38223 12.734 7.26623C12.616 7.15023 12.426 7.14823 12.31 7.26623L9.99999 9.57623L7.68999 7.26623C7.57199 7.14823 7.38199 7.14823 7.26599 7.26623C7.14999 7.38423 7.14799 7.57423 7.26599 7.69023L9.57599 10.0002L7.26599 12.3102C7.14799 12.4282 7.14799 12.6182 7.26599 12.7342Z" fill="black"/>
</g>
</svg>
