<svg width="32" height="32" viewBox="0 0 32 32" fill="none" xmlns="http://www.w3.org/2000/svg">
<g id="comments-question-check 1" clip-path="url(#clip0_106_765)">
<path id="Vector" d="M32 21.3333V28C32 30.2093 30.2093 32 28 32H21.3333C17.3933 32 13.9533 29.8466 12.1067 26.6613L12.16 26.608C14.5653 26.424 16.8253 25.74 18.816 24.668L21.448 27.22C21.9707 27.7426 22.6547 28.0013 23.3387 28.0013C24.0173 28.0013 24.6947 27.7466 25.204 27.2346L28.928 23.6253C29.456 23.1133 29.4693 22.268 28.956 21.74C28.4427 21.212 27.5987 21.2 27.0707 21.712L23.3187 25.3213L21.1027 23.1733C24.2493 20.7026 26.3427 17.116 26.6293 13.0586C26.652 12.7466 26.6427 12.4373 26.6453 12.1266L26.6627 12.1093C29.848 13.956 32.0013 17.396 32.0013 21.336L32 21.3333ZM10.8507 24H4.88133C2.18933 24 0 21.8066 0 19.112V12.3946C0 6.11864 5.09733 0.457311 11.132 0.0306447C14.6187 -0.222689 18.0253 1.05598 20.484 3.51331C22.9427 5.97064 24.2147 9.38265 23.968 12.868C23.528 19.1106 17.7653 24 10.8493 24H10.8507ZM13.6667 17.6666C13.6667 16.7466 12.92 16 12 16C11.08 16 10.3333 16.7466 10.3333 17.6666C10.3333 18.5866 11.08 19.3333 12 19.3333C12.92 19.3333 13.6667 18.5866 13.6667 17.6666ZM15.9373 8.61998C15.6533 7.00398 14.3267 5.67864 12.7147 5.39731C11.5333 5.18264 10.3373 5.50531 9.43067 6.26798C8.52133 7.03064 8.00133 8.14798 8.00133 9.33331C8.00133 10.0706 8.59867 10.6666 9.33467 10.6666C10.0707 10.6666 10.668 10.0706 10.668 9.33331C10.668 8.93731 10.8413 8.56531 11.1453 8.31064C11.452 8.05331 11.8467 7.94931 12.2547 8.02264C12.776 8.11331 13.2213 8.55731 13.312 9.07998C13.436 9.78798 13.0293 10.2893 12.6427 10.5013C12.052 10.8266 10.668 11.588 10.668 13.332C10.668 14.0693 11.2653 14.6653 12.0013 14.6653C12.7373 14.6653 13.3347 14.0693 13.3347 13.332C13.3347 13.2613 13.3347 13.1653 13.9307 12.8373C15.4293 12.0093 16.236 10.3146 15.9387 8.61864L15.9373 8.61998Z" fill="#5C5E6B"/>
</g>
<defs>
<clipPath id="clip0_106_765">
<rect width="32" height="32" fill="white"/>
</clipPath>
</defs>
</svg>
