<svg width="20" height="20" viewBox="0 0 20 20" fill="none" xmlns="http://www.w3.org/2000/svg">
<g id="delete-user 1" clip-path="url(#clip0_185_1866)">
<path id="Vector" d="M7.5 10C8.48891 10 9.45561 9.70676 10.2779 9.15735C11.1001 8.60794 11.741 7.82705 12.1194 6.91342C12.4978 5.99979 12.5969 4.99446 12.4039 4.02455C12.211 3.05465 11.7348 2.16373 11.0355 1.46447C10.3363 0.765206 9.44536 0.289002 8.47545 0.0960758C7.50555 -0.0968503 6.50021 0.00216643 5.58658 0.380605C4.67295 0.759043 3.89206 1.39991 3.34265 2.22215C2.79325 3.0444 2.5 4.0111 2.5 5C2.50132 6.32568 3.02853 7.59668 3.96593 8.53407C4.90332 9.47147 6.17432 9.99868 7.5 10ZM7.5 1.66667C8.15927 1.66667 8.80374 1.86217 9.3519 2.22844C9.90006 2.59471 10.3273 3.1153 10.5796 3.72439C10.8319 4.33348 10.8979 5.0037 10.7693 5.6503C10.6407 6.29691 10.3232 6.89085 9.85702 7.35703C9.39085 7.8232 8.7969 8.14067 8.1503 8.26929C7.5037 8.3979 6.83348 8.33189 6.22439 8.0796C5.6153 7.82731 5.09471 7.40007 4.72843 6.8519C4.36216 6.30374 4.16667 5.65927 4.16667 5C4.16667 4.11595 4.51786 3.2681 5.14298 2.64298C5.7681 2.01786 6.61595 1.66667 7.5 1.66667ZM15 19.1667C15 19.3877 14.9122 19.5996 14.7559 19.7559C14.5996 19.9122 14.3877 20 14.1667 20C13.9457 20 13.7337 19.9122 13.5774 19.7559C13.4211 19.5996 13.3333 19.3877 13.3333 19.1667C13.3333 17.6196 12.7188 16.1358 11.6248 15.0419C10.5308 13.9479 9.0471 13.3333 7.5 13.3333C5.9529 13.3333 4.46917 13.9479 3.37521 15.0419C2.28125 16.1358 1.66667 17.6196 1.66667 19.1667C1.66667 19.3877 1.57887 19.5996 1.42259 19.7559C1.26631 19.9122 1.05435 20 0.833333 20C0.61232 20 0.400358 19.9122 0.244078 19.7559C0.0877974 19.5996 0 19.3877 0 19.1667C0 17.1775 0.790176 15.2699 2.1967 13.8634C3.60322 12.4568 5.51088 11.6667 7.5 11.6667C9.48912 11.6667 11.3968 12.4568 12.8033 13.8634C14.2098 15.2699 15 17.1775 15 19.1667ZM19.7558 11.9108C19.8354 11.9877 19.8989 12.0797 19.9426 12.1813C19.9863 12.283 20.0092 12.3924 20.0102 12.503C20.0112 12.6137 19.9901 12.7234 19.9482 12.8258C19.9063 12.9282 19.8444 13.0213 19.7662 13.0995C19.6879 13.1777 19.5949 13.2396 19.4925 13.2815C19.39 13.3234 19.2803 13.3445 19.1697 13.3435C19.059 13.3426 18.9497 13.3196 18.848 13.2759C18.7463 13.2322 18.6544 13.1688 18.5775 13.0892L17.0833 11.595L15.5892 13.0892C15.432 13.241 15.2215 13.325 15.003 13.3231C14.7845 13.3212 14.5755 13.2335 14.421 13.079C14.2665 12.9245 14.1788 12.7155 14.1769 12.497C14.175 12.2785 14.259 12.068 14.4108 11.9108L15.905 10.4167L14.4108 8.9225C14.259 8.76533 14.175 8.55483 14.1769 8.33634C14.1788 8.11784 14.2665 7.90883 14.421 7.75432C14.5755 7.59981 14.7845 7.51217 15.003 7.51027C15.2215 7.50838 15.432 7.59237 15.5892 7.74417L17.0833 9.23834L18.5775 7.74417C18.7347 7.59237 18.9452 7.50838 19.1637 7.51027C19.3822 7.51217 19.5912 7.59981 19.7457 7.75432C19.9002 7.90883 19.9878 8.11784 19.9897 8.33634C19.9916 8.55483 19.9076 8.76533 19.7558 8.9225L18.2617 10.4167L19.7558 11.9108Z" fill="#F02D3A"/>
</g>
<defs>
<clipPath id="clip0_185_1866">
<rect width="20" height="20" fill="white"/>
</clipPath>
</defs>
</svg>
