<svg width="20" height="20" viewBox="0 0 20 20" fill="none" xmlns="http://www.w3.org/2000/svg">
<g id="experience" clip-path="url(#clip0_623_6727)">
<g id="Group">
<path id="Vector" d="M7.07115 5.56995L6.7329 5.69253C6.21087 5.88183 5.82142 6.33847 5.71646 6.8846L5.60169 7.48601C5.54443 7.7839 5.6224 8.08897 5.81572 8.32292C6.00911 8.5571 6.29427 8.6914 6.59794 8.6914H9.52986C9.83118 8.6914 10.1149 8.55886 10.3083 8.32776C10.5015 8.09687 10.5818 7.79456 10.5288 7.49835L10.4218 6.90011C10.3226 6.34538 9.93185 5.88132 9.40193 5.68901L9.04333 5.55905V5.03054C9.04333 5.01569 9.04189 5.00124 9.03974 4.98698C9.30134 4.72065 9.45119 4.35749 9.45119 3.98593V3.19847C9.45119 2.42979 8.82579 1.80444 8.05708 1.80444C7.28837 1.80444 6.66287 2.42979 6.66287 3.19847V4.01046C6.66287 4.39241 6.82037 4.74112 7.07361 4.99437C7.07212 5.00624 7.07115 5.01823 7.07115 5.0305V5.56995ZM9.8449 7.00323L9.95193 7.60155C9.97435 7.72659 9.9404 7.85421 9.8588 7.95171C9.77708 8.04937 9.65716 8.10542 9.52978 8.10542H6.59787C6.46954 8.10542 6.34908 8.0487 6.26736 7.94976C6.18579 7.85101 6.15287 7.72229 6.17708 7.59624L6.29185 6.99483C6.35798 6.65061 6.60353 6.36269 6.93247 6.24343L7.15404 6.16315C7.15958 6.16886 7.16517 6.1746 7.17119 6.17987C7.42365 6.40062 7.74033 6.51101 8.0572 6.51097C8.37369 6.51097 8.69029 6.40081 8.94279 6.1805C8.95189 6.17257 8.96025 6.16401 8.96822 6.15511L9.20193 6.23983C9.53607 6.36101 9.7824 6.65351 9.8449 7.00323ZM7.2488 3.19847C7.2488 2.75292 7.61134 2.39038 8.05697 2.39038C8.43306 2.39038 8.74908 2.64897 8.8388 2.99741C8.80115 3.01581 8.76251 3.03319 8.72294 3.04901C8.36271 3.19323 8.07173 3.17409 7.98857 3.11581C7.85607 3.02292 7.67341 3.05495 7.58048 3.18745C7.48759 3.31995 7.51966 3.50261 7.65212 3.59554C7.79521 3.69589 7.98943 3.74604 8.21107 3.74604C8.41244 3.74604 8.63646 3.70421 8.86517 3.62144V3.98585C8.86517 4.20979 8.77255 4.42909 8.61103 4.58749C8.53626 4.66085 8.4506 4.71769 8.35861 4.7569C8.35216 4.75937 8.34583 4.76202 8.33962 4.76491C8.24513 4.80229 8.14419 4.82108 8.04103 4.81839C7.60415 4.80999 7.2488 4.44753 7.2488 4.01042V3.19847ZM8.02978 5.40429C8.03872 5.40444 8.04759 5.40452 8.05654 5.40452C8.194 5.40452 8.32869 5.38386 8.45736 5.34421V5.81292C8.21318 5.96347 7.90103 5.96339 7.65716 5.81269V5.34507C7.77568 5.38097 7.90056 5.40179 8.02978 5.40429Z" fill="#0D0A0B"/>
<path id="Vector_2" d="M3.44778 13.7072H12.5716C12.7334 13.7072 12.8646 13.576 12.8646 13.4142C12.8646 13.2523 12.7334 13.1212 12.5716 13.1212H3.44778C3.28595 13.1212 3.15482 13.2523 3.15482 13.4142C3.15482 13.576 3.28595 13.7072 3.44778 13.7072Z" fill="#0D0A0B"/>
<path id="Vector_3" d="M3.44778 15.2869H12.5716C12.7334 15.2869 12.8646 15.1557 12.8646 14.9939C12.8646 14.8321 12.7334 14.7009 12.5716 14.7009H3.44778C3.28595 14.7009 3.15482 14.8321 3.15482 14.9939C3.15482 15.1557 3.28595 15.2869 3.44778 15.2869Z" fill="#0D0A0B"/>
<path id="Vector_4" d="M3.44778 16.8666H12.5716C12.7334 16.8666 12.8646 16.7354 12.8646 16.5736C12.8646 16.4118 12.7334 16.2806 12.5716 16.2806H3.44778C3.28595 16.2806 3.15482 16.4118 3.15482 16.5736C3.15482 16.7354 3.28595 16.8666 3.44778 16.8666Z" fill="#0D0A0B"/>
<path id="Vector_5" d="M3.44778 18.4463H12.5716C12.7334 18.4463 12.8646 18.3152 12.8646 18.1533C12.8646 17.9915 12.7334 17.8604 12.5716 17.8604H3.44778C3.28595 17.8604 3.15482 17.9915 3.15482 18.1533C3.15482 18.3152 3.28595 18.4463 3.44778 18.4463Z" fill="#0D0A0B"/>
<path id="Vector_6" d="M3.15482 10.2549C3.15482 10.4167 3.28595 10.5479 3.44778 10.5479H12.5716C12.7334 10.5479 12.8646 10.4167 12.8646 10.2549C12.8646 10.093 12.7334 9.96191 12.5716 9.96191H3.44778C3.28595 9.96191 3.15482 10.0931 3.15482 10.2549Z" fill="#0D0A0B"/>
<path id="Vector_7" d="M3.44778 12.1274H12.5716C12.7334 12.1274 12.8646 11.9963 12.8646 11.8345C12.8646 11.6726 12.7334 11.5415 12.5716 11.5415H3.44778C3.28595 11.5415 3.15482 11.6726 3.15482 11.8345C3.15482 11.9963 3.28595 12.1274 3.44778 12.1274Z" fill="#0D0A0B"/>
<path id="Vector_8" d="M2.36596 13.7082C2.52838 13.7082 2.66006 13.5766 2.66006 13.4142C2.66006 13.2518 2.52838 13.1201 2.36596 13.1201C2.20354 13.1201 2.0719 13.2518 2.0719 13.4142C2.0719 13.5766 2.20358 13.7082 2.36596 13.7082Z" fill="#0D0A0B"/>
<path id="Vector_9" d="M2.36596 10.5489C2.52838 10.5489 2.66006 10.4173 2.66006 10.2549C2.66006 10.0925 2.52838 9.96082 2.36596 9.96082C2.20354 9.96082 2.0719 10.0925 2.0719 10.2549C2.0719 10.4173 2.20358 10.5489 2.36596 10.5489Z" fill="#0D0A0B"/>
<path id="Vector_10" d="M2.36596 12.1287C2.52838 12.1287 2.66006 11.997 2.66006 11.8346C2.66006 11.6722 2.52838 11.5405 2.36596 11.5405C2.20354 11.5405 2.0719 11.6722 2.0719 11.8346C2.0719 11.997 2.20358 12.1287 2.36596 12.1287Z" fill="#0D0A0B"/>
<path id="Vector_11" d="M2.36596 15.288C2.52838 15.288 2.66006 15.1563 2.66006 14.9939C2.66006 14.8315 2.52838 14.6998 2.36596 14.6998C2.20354 14.6998 2.0719 14.8315 2.0719 14.9939C2.0719 15.1563 2.20358 15.288 2.36596 15.288Z" fill="#0D0A0B"/>
<path id="Vector_12" d="M2.36596 16.8677C2.52838 16.8677 2.66006 16.736 2.66006 16.5736C2.66006 16.4112 2.52838 16.2795 2.36596 16.2795C2.20354 16.2795 2.0719 16.4112 2.0719 16.5736C2.0719 16.736 2.20358 16.8677 2.36596 16.8677Z" fill="#0D0A0B"/>
<path id="Vector_13" d="M2.36596 18.4474C2.52838 18.4474 2.66006 18.3157 2.66006 18.1533C2.66006 17.9909 2.52838 17.8593 2.36596 17.8593C2.20354 17.8593 2.0719 17.9909 2.0719 18.1533C2.0719 18.3157 2.20358 18.4474 2.36596 18.4474Z" fill="#0D0A0B"/>
<path id="Vector_14" d="M18.9699 4.6141C18.8517 4.46449 18.74 4.32312 18.686 4.19289C18.6277 4.0523 18.6047 3.86656 18.5804 3.66984C18.5378 3.32523 18.4895 2.93465 18.2169 2.66211C17.9444 2.38957 17.5537 2.34129 17.2091 2.29867C17.0124 2.27437 16.8265 2.25141 16.686 2.19313C16.5557 2.1391 16.4144 2.02746 16.2647 1.90922C16.0588 1.74652 15.8324 1.56789 15.5646 1.48684V1.3982C15.5647 0.627266 14.9374 0 14.1663 0H1.96147C1.19042 0 0.56311 0.627266 0.56311 1.39824V2.52906C0.56311 2.6909 0.694243 2.82203 0.856079 2.82203C1.01792 2.82203 1.14905 2.6909 1.14905 2.52906V1.39824C1.14905 0.950312 1.5135 0.585938 1.96147 0.585938H14.1663C14.6143 0.585938 14.9787 0.950312 14.9787 1.39824V1.48691C14.7111 1.56801 14.4847 1.74656 14.2788 1.90926C14.1292 2.02746 13.9878 2.13914 13.8576 2.19316C13.717 2.25141 13.5312 2.27437 13.3344 2.29871C12.9898 2.34129 12.5992 2.38957 12.3266 2.66211C12.054 2.93469 12.0057 3.32527 11.9631 3.66988C11.9388 3.86656 11.9158 4.05234 11.8576 4.19293C11.8035 4.32316 11.6919 4.46453 11.5736 4.61414C11.3547 4.89113 11.1067 5.20508 11.1067 5.60699C11.1067 6.00891 11.3548 6.32285 11.5736 6.59984C11.6918 6.74945 11.8035 6.89082 11.8576 7.02105C11.9158 7.16164 11.9388 7.34738 11.9631 7.54414C12.0057 7.88871 12.054 8.2793 12.3266 8.55184C12.5992 8.82441 12.9898 8.87266 13.3344 8.91527C13.4371 8.92797 13.5367 8.94043 13.6286 8.95762V13.386C13.6286 13.5596 13.7255 13.7146 13.8815 13.7905C14.0374 13.8666 14.2192 13.8473 14.3559 13.7402L14.9787 13.2526V18.6018C14.9787 19.0497 14.6142 19.4141 14.1663 19.4141H1.96147C1.5135 19.4141 1.14905 19.0497 1.14905 18.6018V3.81918C1.14905 3.65734 1.01792 3.52621 0.856079 3.52621C0.694243 3.52621 0.56311 3.65734 0.56311 3.81918V18.6018C0.56311 19.3727 1.19042 20 1.96147 20H14.1663C14.9374 20 15.5647 19.3727 15.5647 18.6018V13.2525L16.1874 13.7401C16.2687 13.8038 16.366 13.8364 16.4644 13.8364C16.5314 13.8364 16.5989 13.8212 16.6622 13.7904C16.8182 13.7145 16.9151 13.5595 16.9151 13.386V10.1166C16.9151 9.95473 16.784 9.82359 16.6222 9.82359C16.4603 9.82359 16.3292 9.95473 16.3292 10.1166V13.107L15.5504 12.4973C15.4717 12.435 15.3727 12.4006 15.2717 12.4006C15.1706 12.4006 15.0716 12.435 14.9942 12.4963L14.2145 13.1067V9.25414C14.2358 9.27078 14.2571 9.28762 14.2788 9.30469C14.5558 9.52359 14.8698 9.7716 15.2717 9.7716C15.6737 9.7716 15.9876 9.52355 16.2647 9.30473C16.4143 9.18652 16.5557 9.07481 16.6859 9.02078C16.8265 8.96254 17.0123 8.93957 17.2091 8.91523C17.5537 8.87266 17.9443 8.82438 18.2169 8.55184C18.4895 8.27926 18.5378 7.88867 18.5804 7.5441C18.6047 7.34738 18.6277 7.1616 18.686 7.02102C18.74 6.89078 18.8517 6.74941 18.9699 6.5998C19.1888 6.32281 19.4369 6.00887 19.4369 5.60695C19.4369 5.20504 19.1888 4.89109 18.9699 4.6141ZM18.5102 6.23652C18.3724 6.41094 18.2299 6.59125 18.1448 6.79656C18.056 7.01063 18.0269 7.24527 17.9989 7.47219C17.9649 7.74742 17.9328 8.00738 17.8027 8.13746C17.6726 8.26754 17.4126 8.29965 17.1373 8.33367C16.9103 8.36172 16.6757 8.3907 16.4616 8.47949C16.2563 8.56461 16.076 8.70707 15.9015 8.84488C15.6797 9.02008 15.4702 9.18563 15.2718 9.18563C15.0734 9.18563 14.8639 9.02012 14.6421 8.84488C14.4677 8.70711 14.2874 8.56461 14.0821 8.47949C14.0679 8.47363 14.0189 8.45496 14.0083 8.45168C13.8146 8.38434 13.6075 8.35852 13.4063 8.33367C13.131 8.29965 12.871 8.2675 12.7409 8.13742C12.6109 8.00738 12.5787 7.74742 12.5447 7.47223C12.5167 7.24527 12.4877 7.0107 12.3989 6.79656C12.3137 6.59125 12.1713 6.41094 12.0335 6.23652C11.8583 6.01473 11.6927 5.80527 11.6927 5.60695C11.6927 5.40863 11.8582 5.19918 12.0335 4.97738C12.1713 4.80297 12.3138 4.62266 12.3989 4.41734C12.4877 4.20328 12.5167 3.96863 12.5447 3.74172C12.5787 3.46648 12.6109 3.20652 12.741 3.07645C12.8711 2.94637 13.1311 2.91426 13.4064 2.88023C13.6333 2.85219 13.8679 2.8232 14.0821 2.73441C14.2874 2.6493 14.4677 2.50684 14.6421 2.36902C14.8635 2.19414 15.0726 2.02898 15.2706 2.02836C15.271 2.02836 15.2714 2.0284 15.2717 2.0284C15.2721 2.0284 15.2725 2.02836 15.2729 2.02836C15.471 2.02895 15.6801 2.19414 15.9015 2.36902C16.076 2.5068 16.2563 2.6493 16.4616 2.73441C16.6757 2.8232 16.9104 2.85223 17.1373 2.88023C17.4126 2.91426 17.6726 2.94641 17.8027 3.07648C17.9328 3.20656 17.9649 3.46648 17.9989 3.74172C18.027 3.96863 18.056 4.20324 18.1448 4.41734C18.2299 4.62266 18.3724 4.80297 18.5102 4.97738C18.6854 5.19918 18.8509 5.40863 18.8509 5.60695C18.8509 5.80527 18.6854 6.01477 18.5102 6.23652Z" fill="#0D0A0B"/>
<path id="Vector_15" d="M17.1527 4.67592L16.1557 4.39385L15.5793 3.53292C15.5104 3.4301 15.3955 3.36877 15.2718 3.36877C15.1481 3.36877 15.0331 3.43014 14.9643 3.53292L14.3878 4.39385L13.3908 4.67596C13.2718 4.70967 13.1778 4.8001 13.1396 4.91776C13.1014 5.03541 13.1243 5.16374 13.2008 5.26084L13.8416 6.07502L13.8018 7.11006C13.797 7.23374 13.8539 7.351 13.954 7.42377C14.0182 7.47045 14.0944 7.49459 14.1714 7.49459C14.2144 7.49459 14.2577 7.48706 14.2993 7.47174L15.2717 7.11401L16.2441 7.4717C16.3602 7.51452 16.4893 7.49655 16.5894 7.42385C16.6895 7.35116 16.7464 7.23393 16.7417 7.11022L16.7019 6.07499L17.3427 5.26081C17.4192 5.16358 17.442 5.03534 17.4038 4.91768C17.3657 4.80002 17.2718 4.70963 17.1527 4.67592ZM16.1923 5.77526C16.1381 5.84416 16.1101 5.93034 16.1134 6.01819L16.1438 6.81053L15.3996 6.53674C15.3171 6.50639 15.2263 6.50643 15.144 6.5367L14.3996 6.81053L14.4301 6.01792C14.4334 5.93038 14.4053 5.8442 14.351 5.77506L13.8607 5.15194L14.6239 4.93604C14.7083 4.91209 14.7817 4.85874 14.8305 4.78584L15.2717 4.12686L15.7129 4.78577C15.7617 4.8587 15.8351 4.91206 15.9197 4.93608L16.6828 5.15194L16.1923 5.77526Z" fill="#0D0A0B"/>
</g>
</g>
<defs>
<clipPath id="clip0_623_6727">
<rect width="20" height="20" fill="white"/>
</clipPath>
</defs>
</svg>
