<svg width="16" height="15" viewBox="0 0 16 15" fill="none" xmlns="http://www.w3.org/2000/svg">
<path d="M16 3.33333V4C16 4.368 15.702 4.66667 15.3333 4.66667C14.9647 4.66667 14.6667 4.368 14.6667 4V3.33333C14.6667 2.23067 13.7693 1.33333 12.6667 1.33333H3.33333C2.23067 1.33333 1.33333 2.23067 1.33333 3.33333V10C1.33333 11.1027 2.23067 12 3.33333 12H5.33333C5.702 12 6 12.2987 6 12.6667C6 13.0347 5.702 13.3333 5.33333 13.3333H3.33333C1.49533 13.3333 0 11.838 0 10V3.33333C0 1.49533 1.49533 0 3.33333 0H12.6667C14.5047 0 16 1.49533 16 3.33333ZM10 4.66667H12.6667C13.0353 4.66667 13.3333 4.368 13.3333 4C13.3333 3.632 13.0353 3.33333 12.6667 3.33333H10C9.63133 3.33333 9.33333 3.632 9.33333 4C9.33333 4.368 9.63133 4.66667 10 4.66667ZM15.414 6.586C15.7913 6.96333 16 7.466 16 8C16 8.534 15.7913 9.03667 15.414 9.41467L10.9427 13.886C10.4393 14.3893 9.76933 14.6673 9.05733 14.6673H8C7.63133 14.6673 7.33333 14.3687 7.33333 14.0007V12.9433C7.33333 12.2313 7.61067 11.5613 8.11467 11.058L12.586 6.58667C13.366 5.80667 14.634 5.80667 15.414 6.58667V6.586ZM14.6667 8C14.6667 7.822 14.5973 7.65467 14.4713 7.52867C14.2107 7.268 13.7893 7.26867 13.5287 7.52867L9.05733 12C8.80933 12.2487 8.66667 12.592 8.66667 12.9427V13.3333H9.05733C9.41333 13.3333 9.748 13.1947 10 12.9427L14.4713 8.47133C14.5973 8.34533 14.6667 8.178 14.6667 8ZM6 8.66667H4.488C4.25067 8.66667 4.02933 8.53867 3.91 8.33333C3.72667 8.014 3.31933 7.904 2.99933 8.09C2.68067 8.27467 2.57133 8.682 2.75667 9.00067C3.11267 9.61733 3.77667 10 4.48867 10H4.66733C4.66733 10.368 4.96533 10.6667 5.334 10.6667C5.70267 10.6667 6.00067 10.368 6.00067 10C7.10333 10 8.00067 9.10267 8.00067 8C8.00067 7.09333 7.35133 6.32667 6.45733 6.178L4.43 5.84C4.18133 5.79867 4.00067 5.58533 4.00067 5.33333C4.00067 4.966 4.29933 4.66667 4.66733 4.66667H6.17933C6.41667 4.66667 6.638 4.79467 6.75733 5C6.94067 5.31867 7.34733 5.428 7.668 5.24333C7.98667 5.05867 8.096 4.65133 7.91067 4.33267C7.55467 3.716 6.89067 3.33267 6.17867 3.33267H6C6 2.96467 5.702 2.666 5.33333 2.666C4.96467 2.666 4.66667 2.96467 4.66667 3.33267C3.564 3.33267 2.66667 4.23 2.66667 5.33267C2.66667 6.23933 3.316 7.006 4.21 7.15467L6.23733 7.49267C6.486 7.534 6.66667 7.74733 6.66667 7.99933C6.66667 8.36667 6.368 8.666 6 8.666V8.66667ZM9.33333 6.66667C9.33333 7.03467 9.632 7.33333 10 7.33333C10.368 7.33333 10.6667 7.03467 10.6667 6.66667C10.6667 6.29867 10.368 6 10 6C9.632 6 9.33333 6.29867 9.33333 6.66667Z" fill="#0085A5"/>
</svg>
