<svg width="20" height="20" viewBox="0 0 20 20" fill="none" xmlns="http://www.w3.org/2000/svg">
<path d="M15.8333 0.833344H4.16667C3.062 0.834667 2.00296 1.27408 1.22185 2.05519C0.440735 2.83631 0.00132321 3.89535 0 5.00001L0 15C0.00132321 16.1047 0.440735 17.1637 1.22185 17.9448C2.00296 18.7259 3.062 19.1654 4.16667 19.1667H15.8333C16.938 19.1654 17.997 18.7259 18.7782 17.9448C19.5593 17.1637 19.9987 16.1047 20 15V5.00001C19.9987 3.89535 19.5593 2.83631 18.7782 2.05519C17.997 1.27408 16.938 0.834667 15.8333 0.833344ZM4.16667 2.50001H15.8333C16.3323 2.50099 16.8196 2.65127 17.2325 2.93151C17.6453 3.21175 17.9649 3.60913 18.15 4.07251L11.7683 10.455C11.2987 10.9228 10.6628 11.1854 10 11.1854C9.33715 11.1854 8.70131 10.9228 8.23167 10.455L1.85 4.07251C2.03512 3.60913 2.35468 3.21175 2.76754 2.93151C3.1804 2.65127 3.66768 2.50099 4.16667 2.50001ZM15.8333 17.5H4.16667C3.50363 17.5 2.86774 17.2366 2.3989 16.7678C1.93006 16.2989 1.66667 15.6631 1.66667 15V6.25001L7.05333 11.6333C7.83552 12.4136 8.89521 12.8517 10 12.8517C11.1048 12.8517 12.1645 12.4136 12.9467 11.6333L18.3333 6.25001V15C18.3333 15.6631 18.0699 16.2989 17.6011 16.7678C17.1323 17.2366 16.4964 17.5 15.8333 17.5Z" fill="#0D0A0B"/>
</svg>
