<svg width="20" height="20" viewBox="0 0 20 20" fill="none" xmlns="http://www.w3.org/2000/svg">
<g id="experience-2">
<path id="Vector" d="M9.96095 6.27378C10.5516 6.27378 11.1176 5.97612 11.5547 5.43589C11.9539 4.94253 12.1828 4.32026 12.1828 3.72808C12.1828 2.53511 11.2277 1.6355 9.96095 1.6355C8.69415 1.6355 7.73907 2.53394 7.73907 3.72808C7.73907 4.32026 7.96798 4.94253 8.3672 5.43589C8.80431 5.97651 9.37032 6.27378 9.96095 6.27378ZM9.96095 2.28003C10.875 2.28003 11.5383 2.88901 11.5383 3.72808C11.5383 4.78276 10.6754 5.62925 9.96095 5.62925C9.08712 5.62925 8.38361 4.58901 8.38361 3.72808C8.38361 2.89058 9.04689 2.28003 9.96095 2.28003Z" fill="#0D0A0B"/>
<path id="Vector_2" d="M7.33165 9.36676L7.10547 12.5929C7.1025 12.6352 7.10786 12.6775 7.12127 12.7177C7.13468 12.7578 7.15586 12.7949 7.18361 12.8269C7.21136 12.8589 7.24513 12.885 7.283 12.9039C7.32086 12.9228 7.36208 12.9341 7.4043 12.9371H7.42696C7.50848 12.937 7.58695 12.906 7.64659 12.8505C7.70623 12.7949 7.74262 12.7188 7.74844 12.6375L7.97461 9.41403C7.97759 9.37181 7.97222 9.32942 7.95881 9.28928C7.94541 9.24914 7.92422 9.21203 7.89647 9.18007C7.86873 9.14811 7.83495 9.12194 7.79709 9.10303C7.75922 9.08413 7.718 9.07286 7.67579 9.06989C7.63357 9.06691 7.59118 9.07228 7.55104 9.08569C7.51089 9.0991 7.47378 9.12028 7.44183 9.14803C7.40987 9.17578 7.38369 9.20955 7.36479 9.24742C7.34588 9.28528 7.33462 9.3265 7.33165 9.36872V9.36676Z" fill="#0D0A0B"/>
<path id="Vector_3" d="M14.3316 12.9367C14.4191 12.929 14.4999 12.8869 14.5563 12.8197C14.6128 12.7525 14.6403 12.6656 14.6328 12.5781C14.6328 12.5781 14.2922 10.1356 14.2422 9.31604C14.1496 7.84456 13.2508 6.66409 11.8465 6.44924C11.3527 6.37346 10.4559 6.31643 9.98712 6.31604C9.34724 6.32713 8.70836 6.37133 8.07305 6.44846C7.41441 6.53863 6.81117 6.86566 6.37618 7.36838C5.91915 7.89612 5.71485 8.57073 5.67305 9.3176C5.62618 10.1379 5.31563 12.5817 5.31563 12.5817C5.3104 12.624 5.31364 12.667 5.32516 12.7081C5.33667 12.7492 5.35624 12.7876 5.38273 12.8211C5.40921 12.8546 5.44209 12.8825 5.47944 12.9031C5.51679 12.9238 5.55787 12.9368 5.60031 12.9415C5.64274 12.9462 5.68568 12.9423 5.72662 12.9303C5.76757 12.9182 5.8057 12.8981 5.83882 12.8712C5.87194 12.8442 5.89937 12.811 5.91953 12.7734C5.93969 12.7357 5.95217 12.6945 5.95626 12.652C5.95626 12.652 6.27149 10.1817 6.31641 9.35315C6.38048 8.17893 7.0754 7.23518 8.16094 7.08752C8.76682 7.01394 9.3761 6.97169 9.98633 6.96096C10.4231 6.96096 11.2899 7.01643 11.7484 7.08674C12.2527 7.16307 12.7137 7.41515 13.05 7.79846C13.4078 8.2094 13.5629 8.76135 13.5969 9.3551C13.6465 10.1848 13.9926 12.6555 13.9926 12.6555C14.0051 12.7356 14.0465 12.8085 14.1089 12.8602C14.1714 12.912 14.2506 12.9392 14.3316 12.9367Z" fill="#0D0A0B"/>
<path id="Vector_4" d="M12.2367 9.06797C12.1943 9.07089 12.1528 9.08217 12.1148 9.10118C12.0768 9.12018 12.0428 9.14653 12.015 9.17871C11.9872 9.21088 11.966 9.24824 11.9527 9.28863C11.9394 9.32903 11.9342 9.37166 11.9375 9.41406L12.1641 12.6398C12.1697 12.7212 12.206 12.7974 12.2655 12.8531C12.3251 12.9087 12.4036 12.9397 12.4851 12.9398H12.5082C12.5934 12.9337 12.6727 12.8941 12.7288 12.8296C12.7848 12.765 12.8129 12.6809 12.807 12.5957L12.5805 9.36953C12.5777 9.32715 12.5667 9.28571 12.5479 9.24761C12.5291 9.2095 12.5031 9.17547 12.4711 9.14746C12.4392 9.11945 12.4021 9.09801 12.3618 9.08437C12.3216 9.07073 12.2791 9.06516 12.2367 9.06797Z" fill="#0D0A0B"/>
<path id="Vector_5" d="M12.0172 15.8547L13.5672 14.3438C13.6102 14.3018 13.6407 14.2486 13.6551 14.1903C13.6695 14.1319 13.6673 14.0707 13.6487 14.0135C13.6301 13.9563 13.5959 13.9055 13.55 13.8667C13.504 13.828 13.4481 13.8028 13.3887 13.7942L11.2469 13.4817L10.2891 11.5422C10.2625 11.4883 10.2213 11.4428 10.1702 11.411C10.1191 11.3793 10.0602 11.3624 9.99999 11.3624C9.93983 11.3624 9.88087 11.3793 9.82978 11.411C9.7787 11.4428 9.73753 11.4883 9.71093 11.5422L8.75312 13.4828L6.61132 13.7953C6.55183 13.804 6.49596 13.8292 6.45001 13.8679C6.40406 13.9067 6.36987 13.9575 6.3513 14.0147C6.33273 14.0719 6.33052 14.1331 6.34493 14.1915C6.35933 14.2498 6.38977 14.303 6.4328 14.345L7.9828 15.8559L7.61718 17.9875C7.60683 18.047 7.61337 18.1081 7.63606 18.164C7.65874 18.2199 7.69667 18.2683 7.74551 18.3037C7.79435 18.3391 7.85215 18.3601 7.91233 18.3643C7.97251 18.3685 8.03266 18.3557 8.08593 18.3274L9.99999 17.3203L11.9141 18.3274C11.9603 18.3516 12.0118 18.3643 12.0641 18.3645C12.111 18.3644 12.1573 18.3541 12.1999 18.3343C12.2424 18.3145 12.2801 18.2856 12.3103 18.2497C12.3406 18.2138 12.3626 18.1718 12.3749 18.1265C12.3872 18.0812 12.3895 18.0338 12.3816 17.9875L12.0172 15.8547ZM9.84999 16.6711C9.47577 16.8618 8.36249 17.4524 8.36249 17.4524L8.64648 15.7957C8.65531 15.7443 8.65149 15.6914 8.63537 15.6417C8.61924 15.5921 8.59128 15.5471 8.5539 15.5106L7.35038 14.3387L9.01366 14.0969C9.06534 14.0894 9.1144 14.0694 9.15666 14.0387C9.19891 14.008 9.23308 13.9675 9.25624 13.9207L9.99843 12.4133L10.7406 13.9207C10.7638 13.9675 10.7979 14.008 10.8402 14.0387C10.8825 14.0694 10.9315 14.0894 10.9832 14.0969L12.6465 14.3387L11.443 15.5106C11.4056 15.5471 11.3776 15.5921 11.3615 15.6417C11.3454 15.6914 11.3416 15.7443 11.3504 15.7957L11.6344 17.4524C11.6344 17.4524 10.5211 16.861 10.1469 16.6711C10.1013 16.6465 10.0503 16.6336 9.99843 16.6336C9.94661 16.6336 9.8956 16.6465 9.84999 16.6711Z" fill="#0D0A0B"/>
<path id="Vector_6" d="M18.8527 14.7739L17.2867 14.5462L16.5863 13.1274C16.5598 13.0734 16.5187 13.028 16.4676 12.9962C16.4165 12.9644 16.3576 12.9475 16.2975 12.9475C16.2373 12.9475 16.1784 12.9644 16.1273 12.9962C16.0762 13.028 16.0351 13.0734 16.0086 13.1274L15.3082 14.5462L13.7422 14.7739C13.6827 14.7826 13.6268 14.8077 13.5809 14.8465C13.5349 14.8852 13.5007 14.9361 13.4822 14.9932C13.4636 15.0504 13.4614 15.1116 13.4758 15.17C13.4902 15.2284 13.5206 15.2815 13.5637 15.3235L14.6965 16.4282L14.4289 17.9876C14.4185 18.047 14.4251 18.1081 14.4478 18.164C14.4705 18.2199 14.5084 18.2683 14.5572 18.3038C14.6061 18.3392 14.6639 18.3601 14.724 18.3643C14.7842 18.3685 14.8444 18.3557 14.8976 18.3274L16.298 17.5911L17.6988 18.3274C17.7451 18.3516 17.7966 18.3644 17.8488 18.3645C17.8957 18.3644 17.9421 18.3541 17.9846 18.3343C18.0272 18.3145 18.0649 18.2856 18.0951 18.2497C18.1253 18.2139 18.1474 18.1718 18.1597 18.1265C18.172 18.0812 18.1743 18.0338 18.1664 17.9876L17.8988 16.4282L19.0316 15.3235C19.0747 15.2815 19.1051 15.2284 19.1195 15.17C19.1339 15.1116 19.1317 15.0504 19.1131 14.9932C19.0946 14.9361 19.0604 14.8852 19.0144 14.8465C18.9685 14.8077 18.9126 14.7826 18.8531 14.7739H18.8527ZM16.1476 16.9419C15.9019 17.0653 15.1746 17.4532 15.1746 17.4532L15.3605 16.37C15.3694 16.3185 15.3656 16.2657 15.3494 16.216C15.3333 16.1663 15.3053 16.1213 15.268 16.0848L14.4809 15.3176L15.5684 15.1614C15.6201 15.1539 15.6692 15.1339 15.7115 15.1031C15.7538 15.0724 15.7879 15.0318 15.8109 14.9848L16.2973 13.9997L16.7836 14.9848C16.8068 15.0317 16.841 15.0723 16.8833 15.1031C16.9256 15.1338 16.9748 15.1538 17.0266 15.1614L18.1137 15.3176L17.3269 16.0848C17.2895 16.1213 17.2615 16.1663 17.2454 16.2159C17.2292 16.2656 17.2255 16.3185 17.2344 16.37L17.4219 17.4532C17.4219 17.4532 16.6949 17.0653 16.4492 16.9419C16.4029 16.9169 16.3511 16.9038 16.2984 16.9038C16.2458 16.9038 16.194 16.9169 16.1476 16.9419Z" fill="#0D0A0B"/>
<path id="Vector_7" d="M6.25782 14.7739L4.6918 14.5462L3.99141 13.1274C3.96488 13.0734 3.92375 13.028 3.87269 12.9962C3.82164 12.9644 3.76269 12.9475 3.70254 12.9475C3.64239 12.9475 3.58345 12.9644 3.53239 12.9962C3.48133 13.028 3.44021 13.0734 3.41368 13.1274L2.71328 14.5462L1.14727 14.7739C1.08778 14.7826 1.03191 14.8077 0.985963 14.8465C0.940014 14.8852 0.905823 14.9361 0.887253 14.9932C0.868683 15.0504 0.866474 15.1116 0.880876 15.17C0.895279 15.2284 0.925718 15.2815 0.968754 15.3235L2.10157 16.4282L1.83594 17.9876C1.82559 18.047 1.83213 18.1081 1.85482 18.164C1.87751 18.2199 1.91543 18.2683 1.96427 18.3038C2.01311 18.3392 2.07091 18.3601 2.13109 18.3643C2.19128 18.3685 2.25142 18.3557 2.30469 18.3274L3.70547 17.5911L5.10586 18.3274C5.15216 18.3516 5.20361 18.3644 5.25586 18.3645C5.30279 18.3644 5.34914 18.3541 5.39167 18.3343C5.43421 18.3145 5.47191 18.2856 5.50214 18.2497C5.53238 18.2139 5.55442 18.1718 5.56674 18.1265C5.57905 18.0812 5.58134 18.0338 5.57344 17.9876L5.30586 16.4282L6.43868 15.3235C6.48171 15.2815 6.51215 15.2284 6.52655 15.17C6.54096 15.1116 6.53875 15.0504 6.52018 14.9932C6.50161 14.9361 6.46741 14.8852 6.42147 14.8465C6.37552 14.8077 6.31964 14.7826 6.26016 14.7739H6.25782ZM3.55469 16.9419L2.58008 17.4532L2.76563 16.37C2.77453 16.3185 2.77075 16.2656 2.75462 16.2159C2.73848 16.1663 2.71049 16.1213 2.67305 16.0848L1.88633 15.3176L2.97344 15.1614C3.02521 15.1538 3.07437 15.1338 3.11669 15.1031C3.15902 15.0723 3.19324 15.0317 3.21641 14.9848L3.70274 13.9997L4.18907 14.9848C4.2121 15.0318 4.24622 15.0724 4.28849 15.1031C4.33077 15.1339 4.3799 15.1539 4.43164 15.1614L5.51914 15.3176L4.73204 16.0848C4.69465 16.1213 4.66669 16.1663 4.65057 16.216C4.63444 16.2657 4.63063 16.3185 4.63946 16.37L4.82539 17.4532L3.85235 16.9419C3.80755 16.9144 3.75604 16.8999 3.70352 16.8999C3.651 16.8999 3.59949 16.9144 3.55469 16.9419Z" fill="#0D0A0B"/>
</g>
</svg>
