<svg width="22" height="20" viewBox="0 0 22 20" fill="none" xmlns="http://www.w3.org/2000/svg">
<g id="image" clip-path="url(#clip0_5383_6408)">
<path id="Vector" d="M21.1576 10C21.1576 8.08333 21.071 6.33333 20.7248 5.33333C20.3786 4.16667 19.9459 3.08333 18.9073 2.08333C17.6091 0.916667 16.4839 0.583333 14.753 0.25C13.5413 0.0833333 12.0699 0 11.2045 0C10.9448 0 10.6852 0 10.4255 0C9.47348 0 8.0887 0.0833333 6.79047 0.25C5.0595 0.583333 3.84781 1 2.63613 2.08333C1.511 3.08333 1.1648 4.16667 0.818608 5.33333C0.472413 6.33333 0.385864 8.08333 0.385864 10C0.385864 11.9167 0.472413 13.6667 0.818608 14.6667C1.1648 15.8333 1.59755 16.9167 2.63613 17.9167C3.93436 19.0833 5.0595 19.4167 6.79047 19.75C8.17525 20 9.90623 20 10.7717 20C11.6372 20 13.3682 20 14.8395 19.75C16.4839 19.4167 17.6956 19.0833 18.9938 17.9167C20.0324 17 20.4652 15.9167 20.8114 14.6667C21.071 13.6667 21.1576 11.9167 21.1576 10Z" fill="#379DF1"/>
<path id="Vector_2" d="M16.9167 14.5834V5.41671C16.9167 4.66671 16.3108 4.08337 15.5319 4.08337H6.01152C5.23258 4.08337 4.62674 4.66671 4.62674 5.41671V14.5834C4.62674 15.3334 5.23258 15.9167 6.01152 15.9167H15.5319C16.3108 15.9167 16.9167 15.3334 16.9167 14.5834ZM8.69453 11.3334L10.1659 13L12.243 10.4167C12.4161 10.25 12.6758 10.25 12.7623 10.4167L15.1857 13.5C15.3588 13.6667 15.1857 14 14.926 14H6.70391C6.44426 14 6.18462 13.6667 6.44426 13.5L8.17524 11.4167C8.26179 11.0834 8.52143 11.0834 8.69453 11.3334Z" fill="white"/>
</g>
<defs>
<clipPath id="clip0_5383_6408">
<rect width="20.7717" height="20" fill="white" transform="translate(0.385864)"/>
</clipPath>
</defs>
</svg>
