<svg width="22" height="20" viewBox="0 0 22 20" fill="none" xmlns="http://www.w3.org/2000/svg">
<g id="file 1">
<g id="Group">
<path id="Vector" d="M18.1273 2.26404H17.5199V16.6312C17.5199 17.5857 16.713 18.3626 15.7217 18.3626H9.56784H4.67426V18.8952C4.67426 19.5051 5.18834 20 5.82173 20H11.9734H18.1251C18.7585 20 19.2726 19.5051 19.2726 18.8952V3.36888C19.2726 2.75903 18.7607 2.26404 18.1273 2.26404Z" fill="#3BBFFF"/>
<path id="Vector_2" d="M9.56784 17.736H15.7195C16.3529 17.736 16.867 17.241 16.867 16.6312V2.264V1.10485C16.867 0.494988 16.3529 0 15.7195 0H9.56784H7.52234V0.365497C7.52666 0.403091 7.52885 0.442774 7.52885 0.482457V2.89056V3.50878C7.52885 4.36717 6.80436 5.06475 5.91284 5.06475H5.27077H2.76975C2.73721 5.06475 2.7025 5.06266 2.66997 5.06057H2.27084V16.6312C2.27084 17.241 2.78493 17.736 3.41832 17.736H4.67642H9.56784ZM9.79994 13.9808H5.7892C5.48985 13.9808 5.24691 13.7469 5.24691 13.4587C5.24691 13.1704 5.48985 12.9365 5.7892 12.9365H9.80211C10.1015 12.9365 10.3444 13.1704 10.3444 13.4587C10.3444 13.7469 10.0993 13.9808 9.79994 13.9808ZM13.8129 11.3158H5.7892C5.48985 11.3158 5.24691 11.0819 5.24691 10.7937C5.24691 10.5054 5.48985 10.2715 5.7892 10.2715H13.8129C14.1122 10.2715 14.3551 10.5054 14.3551 10.7937C14.3551 11.0819 14.1122 11.3158 13.8129 11.3158ZM5.7892 7.44153H13.8129C14.1122 7.44153 14.3551 7.67545 14.3551 7.96367C14.3551 8.25189 14.1122 8.48581 13.8129 8.48581H5.7892C5.48985 8.48581 5.24691 8.25189 5.24691 7.96367C5.24691 7.67545 5.48985 7.44153 5.7892 7.44153Z" fill="#3BBFFF"/>
<path id="Vector_3" d="M2.76974 4.4382H5.91283C5.915 4.4382 5.91934 4.4382 5.92151 4.4382C6.44644 4.43402 6.87159 4.02466 6.87593 3.51923C6.87593 3.51715 6.87593 3.51297 6.87593 3.51088V0.482472C6.87593 0.202605 6.63733 0.0167236 6.39007 0.0167236C6.27076 0.0167236 6.15146 0.0584948 6.05168 0.154568L2.42702 3.64455C2.12334 3.93694 2.33808 4.4382 2.76974 4.4382Z" fill="#3BBFFF"/>
</g>
</g>
</svg>
