<svg width="20" height="20" viewBox="0 0 20 20" fill="none" xmlns="http://www.w3.org/2000/svg">
<g id="settings-sliders 1" clip-path="url(#clip0_552_3234)">
<path id="Vector" d="M0.833333 3.9583H3.11333C3.2922 4.61641 3.68264 5.19738 4.22444 5.61158C4.76623 6.02578 5.42927 6.25019 6.11125 6.25019C6.79323 6.25019 7.45627 6.02578 7.99806 5.61158C8.53986 5.19738 8.9303 4.61641 9.10917 3.9583H19.1667C19.3877 3.9583 19.5996 3.87051 19.7559 3.71423C19.9122 3.55795 20 3.34599 20 3.12497C20 2.90396 19.9122 2.692 19.7559 2.53572C19.5996 2.37944 19.3877 2.29164 19.1667 2.29164H9.10917C8.9303 1.63353 8.53986 1.05256 7.99806 0.638362C7.45627 0.224165 6.79323 -0.000244141 6.11125 -0.000244141C5.42927 -0.000244141 4.76623 0.224165 4.22444 0.638362C3.68264 1.05256 3.2922 1.63353 3.11333 2.29164H0.833333C0.61232 2.29164 0.400358 2.37944 0.244078 2.53572C0.0877974 2.692 0 2.90396 0 3.12497C0 3.34599 0.0877974 3.55795 0.244078 3.71423C0.400358 3.87051 0.61232 3.9583 0.833333 3.9583ZM6.11083 1.66664C6.39926 1.66664 6.68122 1.75217 6.92104 1.91241C7.16086 2.07266 7.34778 2.30042 7.45816 2.56689C7.56854 2.83337 7.59742 3.12659 7.54115 3.40948C7.48488 3.69237 7.34598 3.95222 7.14203 4.15617C6.93808 4.36012 6.67823 4.49901 6.39534 4.55528C6.11245 4.61155 5.81923 4.58267 5.55275 4.4723C5.28628 4.36192 5.05852 4.175 4.89827 3.93518C4.73803 3.69536 4.6525 3.4134 4.6525 3.12497C4.65294 2.73833 4.80673 2.36766 5.08012 2.09426C5.35352 1.82087 5.72419 1.66708 6.11083 1.66664Z" fill="#0085A5"/>
<path id="Vector_2" d="M19.1667 9.16666H16.8867C16.7081 8.50839 16.3178 7.92722 15.7761 7.51285C15.2343 7.09848 14.5712 6.87396 13.8892 6.87396C13.2071 6.87396 12.544 7.09848 12.0023 7.51285C11.4605 7.92722 11.0702 8.50839 10.8917 9.16666H0.833333C0.61232 9.16666 0.400358 9.25446 0.244078 9.41074C0.0877974 9.56702 0 9.77898 0 9.99999C0 10.221 0.0877974 10.433 0.244078 10.5892C0.400358 10.7455 0.61232 10.8333 0.833333 10.8333H10.8917C11.0702 11.4916 11.4605 12.0728 12.0023 12.4871C12.544 12.9015 13.2071 13.126 13.8892 13.126C14.5712 13.126 15.2343 12.9015 15.7761 12.4871C16.3178 12.0728 16.7081 11.4916 16.8867 10.8333H19.1667C19.3877 10.8333 19.5996 10.7455 19.7559 10.5892C19.9122 10.433 20 10.221 20 9.99999C20 9.77898 19.9122 9.56702 19.7559 9.41074C19.5996 9.25446 19.3877 9.16666 19.1667 9.16666ZM13.8892 11.4583C13.6007 11.4583 13.3188 11.3728 13.079 11.2126C12.8391 11.0523 12.6522 10.8245 12.5418 10.5581C12.4315 10.2916 12.4026 9.99837 12.4589 9.71548C12.5151 9.4326 12.654 9.17274 12.858 8.96879C13.0619 8.76484 13.3218 8.62595 13.6047 8.56968C13.8875 8.51341 14.1808 8.54229 14.4472 8.65267C14.7137 8.76304 14.9415 8.94996 15.1017 9.18978C15.262 9.42961 15.3475 9.71156 15.3475 9.99999C15.3471 10.3866 15.1933 10.7573 14.9199 11.0307C14.6465 11.3041 14.2758 11.4579 13.8892 11.4583Z" fill="#0085A5"/>
<path id="Vector_3" d="M19.1667 16.0416H9.10917C8.9303 15.3835 8.53986 14.8026 7.99806 14.3884C7.45627 13.9742 6.79323 13.7498 6.11125 13.7498C5.42927 13.7498 4.76623 13.9742 4.22444 14.3884C3.68264 14.8026 3.2922 15.3835 3.11333 16.0416H0.833333C0.61232 16.0416 0.400358 16.1294 0.244078 16.2857C0.0877974 16.442 0 16.654 0 16.875C0 17.096 0.0877974 17.3079 0.244078 17.4642C0.400358 17.6205 0.61232 17.7083 0.833333 17.7083H3.11333C3.2922 18.3664 3.68264 18.9474 4.22444 19.3616C4.76623 19.7758 5.42927 20.0002 6.11125 20.0002C6.79323 20.0002 7.45627 19.7758 7.99806 19.3616C8.53986 18.9474 8.9303 18.3664 9.10917 17.7083H19.1667C19.3877 17.7083 19.5996 17.6205 19.7559 17.4642C19.9122 17.3079 20 17.096 20 16.875C20 16.654 19.9122 16.442 19.7559 16.2857C19.5996 16.1294 19.3877 16.0416 19.1667 16.0416ZM6.11083 18.3333C5.8224 18.3333 5.54045 18.2478 5.30063 18.0875C5.0608 17.9273 4.87389 17.6995 4.76351 17.4331C4.65313 17.1666 4.62425 16.8734 4.68052 16.5905C4.73679 16.3076 4.87568 16.0477 5.07964 15.8438C5.28359 15.6398 5.54344 15.5009 5.82633 15.4447C6.10922 15.3884 6.40244 15.4173 6.66891 15.5276C6.93539 15.638 7.16315 15.8249 7.32339 16.0648C7.48364 16.3046 7.56917 16.5865 7.56917 16.875C7.56851 17.2615 7.41465 17.6321 7.1413 17.9054C6.86795 18.1788 6.4974 18.3326 6.11083 18.3333Z" fill="#0085A5"/>
</g>
<defs>
<clipPath id="clip0_552_3234">
<rect width="20" height="20" fill="white"/>
</clipPath>
</defs>
</svg>
