<svg width="20" height="20" viewBox="0 0 20 20" fill="none" xmlns="http://www.w3.org/2000/svg">
<g id="gallery" clip-path="url(#clip0_2085_10701)">
<g id="Group">
<g id="Group_2">
<g id="Group_3">
<path id="Vector" d="M10.1283 7.42236C9.00161 7.42236 8.0882 8.33574 8.0882 9.46248C8.0882 10.5892 9.00157 11.5026 10.1283 11.5026C11.255 11.5026 12.1684 10.5892 12.1684 9.46248C12.1684 8.33574 11.2551 7.42236 10.1283 7.42236ZM10.1283 10.5311C9.53812 10.5311 9.05968 10.0526 9.05968 9.46243C9.05968 8.87224 9.53812 8.3938 10.1283 8.3938C10.7185 8.3938 11.197 8.87224 11.197 9.46243C11.197 10.0526 10.7185 10.5311 10.1283 10.5311Z" fill="#5C5E6B"/>
<path id="Vector_2" d="M18.2645 2.75925L5.00379 1.25349C4.48914 1.18032 3.9677 1.33057 3.57089 1.66639C3.17412 1.97404 2.91979 2.43007 2.86657 2.9293L2.62372 4.92084H1.87077C0.802135 4.92084 0.000656343 5.868 0.000656343 6.93664V16.87C-0.0262595 17.889 0.778008 18.737 1.79709 18.7639C1.82164 18.7645 1.84623 18.7647 1.87077 18.7644H15.2043C16.2729 18.7644 17.2444 17.9386 17.2444 16.87V16.4814C17.5757 16.4174 17.89 16.285 18.1673 16.0928C18.5608 15.7615 18.8128 15.2923 18.8716 14.7813L19.9888 4.92084C20.1027 3.84973 19.3341 2.8862 18.2645 2.75925ZM16.2729 16.87C16.2729 17.4043 15.7386 17.7929 15.2043 17.7929H1.87077C1.3881 17.8071 0.985339 17.4273 0.97116 16.9446C0.970417 16.9197 0.970742 16.8948 0.972137 16.87V15.0728L4.73663 12.304C5.18886 11.9568 5.82582 11.9877 6.24243 12.3769L8.88972 14.7084C9.29173 15.046 9.79779 15.2347 10.3227 15.2428C10.7331 15.2478 11.1367 15.1385 11.4885 14.927L16.273 12.1583V16.87H16.2729ZM16.2729 11.0168L10.9784 14.1013C10.5237 14.3706 9.94827 14.3219 9.54541 13.9799L6.87386 11.624C6.10818 10.9661 4.98906 10.9257 4.178 11.5268L0.972137 13.8584V6.93664C0.972137 6.40232 1.33645 5.89232 1.87077 5.89232H15.2043C15.7751 5.91598 16.2362 6.36653 16.2729 6.93664V11.0168ZM19.0183 4.7897C19.018 4.7929 19.0177 4.79616 19.0173 4.79936L17.8758 14.6599C17.8778 14.9155 17.7612 15.1577 17.5601 15.3156C17.4629 15.4128 17.2444 15.4613 17.2444 15.5099V6.93664C17.206 5.83021 16.311 4.94589 15.2042 4.92084H3.59515L3.81373 3.02645C3.86115 2.78114 3.98941 2.55884 4.17805 2.39498C4.39105 2.24771 4.64859 2.17905 4.90668 2.20066L18.1431 3.73073C18.6771 3.78144 19.069 4.25556 19.0183 4.7897Z" fill="#5C5E6B"/>
</g>
</g>
</g>
</g>
<defs>
<clipPath id="clip0_2085_10701">
<rect width="20" height="20" fill="white"/>
</clipPath>
</defs>
</svg>
