<svg width="20" height="20" viewBox="0 0 20 20" fill="none" xmlns="http://www.w3.org/2000/svg">
<g id="Group 192">
<g id="Group 560">
<path id="Vector" d="M10 0C8.02219 0 6.08879 0.58649 4.4443 1.6853C2.79981 2.78412 1.51809 4.3459 0.761209 6.17317C0.00433286 8.00043 -0.193701 10.0111 0.192152 11.9509C0.578004 13.8907 1.53041 15.6725 2.92894 17.0711C4.32746 18.4696 6.10929 19.422 8.0491 19.8079C9.98891 20.1937 11.9996 19.9957 13.8268 19.2388C15.6541 18.4819 17.2159 17.2002 18.3147 15.5557C19.4135 13.9112 20 11.9778 20 10C19.9971 7.34872 18.9426 4.80684 17.0679 2.9321C15.1932 1.05736 12.6513 0.00286757 10 0V0ZM10 18.3333C8.35183 18.3333 6.74066 17.8446 5.37025 16.9289C3.99984 16.0132 2.93174 14.7117 2.30101 13.189C1.67028 11.6663 1.50525 9.99076 1.82679 8.37425C2.14834 6.75774 2.94201 5.27288 4.10745 4.10744C5.27289 2.94201 6.75774 2.14833 8.37425 1.82679C9.99076 1.50525 11.6663 1.67027 13.189 2.301C14.7118 2.93173 16.0132 3.99984 16.9289 5.37025C17.8446 6.74066 18.3333 8.35182 18.3333 10C18.3309 12.2094 17.4522 14.3276 15.8899 15.8899C14.3276 17.4522 12.2094 18.3309 10 18.3333Z" fill="#444444"/>
<path id="Vector_2" d="M10.9308 4.21903C10.4503 4.13147 9.95634 4.1506 9.48399 4.27506C9.01165 4.39952 8.57242 4.62628 8.19741 4.93928C7.8224 5.25228 7.52076 5.64388 7.31384 6.08636C7.10692 6.52884 6.99978 7.01139 7 7.49986C7 7.72087 7.0878 7.93284 7.24408 8.08912C7.40036 8.2454 7.61232 8.33319 7.83333 8.33319C8.05435 8.33319 8.26631 8.2454 8.42259 8.08912C8.57887 7.93284 8.66667 7.72087 8.66667 7.49986C8.66646 7.25467 8.72035 7.01246 8.82449 6.79049C8.92864 6.56852 9.08048 6.37227 9.26918 6.21572C9.45789 6.05917 9.6788 5.94618 9.91619 5.88482C10.1536 5.82345 10.4016 5.81521 10.6425 5.86069C10.9717 5.9246 11.2744 6.08518 11.5119 6.32193C11.7494 6.55869 11.9109 6.86086 11.9758 7.18986C12.0414 7.5352 11.9961 7.89242 11.8465 8.21048C11.6968 8.52853 11.4504 8.79111 11.1425 8.96069C10.6326 9.25608 10.2113 9.68279 9.92244 10.1964C9.63355 10.7099 9.48768 11.2916 9.5 11.8807V12.4999C9.5 12.7209 9.5878 12.9328 9.74408 13.0891C9.90036 13.2454 10.1123 13.3332 10.3333 13.3332C10.5543 13.3332 10.7663 13.2454 10.9226 13.0891C11.0789 12.9328 11.1667 12.7209 11.1667 12.4999V11.8807C11.1562 11.5907 11.2223 11.3031 11.3584 11.0468C11.4944 10.7905 11.6956 10.5745 11.9417 10.4207C12.5454 10.0891 13.0316 9.57857 13.3334 8.95936C13.6352 8.34015 13.7377 7.64266 13.6269 6.9628C13.5161 6.28294 13.1974 5.6541 12.7146 5.16277C12.2318 4.67144 11.6086 4.34175 10.9308 4.21903Z" fill="#444444"/>
<path id="Vector_3" d="M10.8333 15.0001C10.8333 14.5398 10.4602 14.1667 9.99996 14.1667C9.53972 14.1667 9.16663 14.5398 9.16663 15.0001C9.16663 15.4603 9.53972 15.8334 9.99996 15.8334C10.4602 15.8334 10.8333 15.4603 10.8333 15.0001Z" fill="#444444"/>
</g>
</g>
</svg>
