<svg width="20" height="20" viewBox="0 0 20 20" fill="none" xmlns="http://www.w3.org/2000/svg">
<g id="logout 1" clip-path="url(#clip0_133_1807)">
<path id="Vector" d="M14.5138 11.6159C14.1686 11.6159 13.8888 11.8957 13.8888 12.2409V14.6806C13.8888 15.1518 13.5055 15.5352 13.0343 15.5352H9.75695V5.77164C9.75695 4.99945 9.37344 4.3352 8.70469 3.94906L4.02977 1.25H13.0343C13.5055 1.25 13.8888 1.63332 13.8888 2.10453V4.88738C13.8888 5.23258 14.1686 5.51238 14.5138 5.51238C14.8589 5.51238 15.1388 5.23258 15.1388 4.88738V2.10453C15.1388 0.944102 14.1947 0 13.0343 0H3.1768C2.01637 0 1.07227 0.944102 1.07227 2.10453V15.3059C1.07227 16.0782 1.45578 16.7424 2.12453 17.1286L6.60016 19.7125C6.93457 19.9055 7.29348 20.0021 7.65242 20.0021C8.01133 20.002 8.37035 19.9055 8.70465 19.7125C9.3734 19.3264 9.75692 18.6621 9.75692 17.89V16.7852H13.0342C14.1947 16.7852 15.1388 15.8411 15.1388 14.6806V12.2409C15.1388 11.8957 14.859 11.6159 14.5138 11.6159ZM8.50695 17.89C8.50695 18.2081 8.35524 18.4709 8.07969 18.63C7.80418 18.789 7.5007 18.789 7.2252 18.63L2.74953 16.046C2.47398 15.887 2.32227 15.6241 2.32227 15.3059V2.10453C2.32227 1.97875 2.34957 1.85922 2.39859 1.7516L8.07969 5.0316C8.35524 5.19066 8.50695 5.45352 8.50695 5.77164V17.89ZM18.7446 8.83453L16.7137 10.8655C16.5917 10.9875 16.4317 11.0486 16.2718 11.0486C16.1119 11.0486 15.9519 10.9875 15.8299 10.8655C15.5858 10.6214 15.5858 10.2257 15.8299 9.9816L16.7939 9.01758H11.0517C10.7066 9.01758 10.4267 8.73777 10.4267 8.39258C10.4267 8.04738 10.7066 7.76758 11.0517 7.76758H16.7939L15.8299 6.80356C15.5858 6.55949 15.5858 6.16375 15.8299 5.91969C16.0739 5.67559 16.4697 5.67559 16.7138 5.91969L18.7447 7.95062C18.9888 8.19473 18.9888 8.59047 18.7446 8.83453Z" fill="#444444"/>
</g>
<defs>
<clipPath id="clip0_133_1807">
<rect width="20" height="20" fill="white"/>
</clipPath>
</defs>
</svg>
