<svg width="20" height="20" viewBox="0 0 20 20" fill="none" xmlns="http://www.w3.org/2000/svg">
<path d="M9.99997 0C8.0681 0 6.49634 1.57176 6.49634 3.50363V10.3895C6.49634 12.3212 8.0681 13.8929 9.99997 13.8929C11.9318 13.8929 13.5036 12.3321 13.5036 10.4136V3.50363C13.5036 1.57176 11.9318 0 9.99997 0ZM12.0435 10.4134C12.0435 11.5268 11.1267 12.4329 9.99997 12.4329C8.87321 12.4329 7.95618 11.5163 7.95618 10.3893V3.50363C7.95618 2.37664 8.87298 1.45984 9.99997 1.45984C11.127 1.45984 12.0438 2.37664 12.0435 3.50363V10.4134Z" fill="black"/>
<path d="M10.7299 15.9854H9.27002V19.27H10.7299V15.9854Z" fill="black"/>
<path d="M11.9221 18.5402H8.07782C7.67466 18.5402 7.3479 18.8669 7.3479 19.2701C7.3479 19.6732 7.67466 20 8.07782 20H11.9221C12.3253 20 12.652 19.6732 12.652 19.2701C12.652 18.8669 12.3253 18.5402 11.9221 18.5402Z" fill="black"/>
<path d="M15.5231 9.17273C15.12 9.17273 14.7932 9.49949 14.7932 9.90265V10.4866C14.7932 13.1294 12.6428 15.2798 10 15.2798C7.35695 15.2798 5.20679 13.1294 5.20679 10.4866V9.90265C5.20679 9.49949 4.88003 9.17273 4.47687 9.17273C4.07371 9.17273 3.74695 9.49949 3.74695 9.90265V10.4866C3.74695 13.9345 6.55207 16.7396 10 16.7396C13.4479 16.7396 16.253 13.9345 16.253 10.4866V9.90265C16.253 9.49953 15.9263 9.17273 15.5231 9.17273Z" fill="black"/>
</svg>
