<svg width="22" height="20" viewBox="0 0 22 20" fill="none" xmlns="http://www.w3.org/2000/svg">
<g id="facebook-2" clip-path="url(#clip0_6810_6288)">
<g id="Group">
<path id="Vector" d="M19.1473 2.41943H2.3959C1.88107 2.41943 1.41143 2.60572 1.0558 2.91221L0.716553 4.35494V13.7334C0.716553 14.8023 1.61651 15.6689 2.7267 15.6689H19.1473L20.6457 15.3227C20.9639 14.9803 21.1574 14.528 21.1574 14.0324V4.3549C21.1575 3.28596 20.2575 2.41943 19.1473 2.41943Z" fill="#4BC3EF"/>
<path id="Vector_2" d="M17.1371 17.5807H4.40607C4.22087 17.5807 4.07104 17.4362 4.07104 17.2581C4.07104 17.08 4.22091 16.9355 4.40607 16.9355H17.1371C17.3223 16.9355 17.4721 17.08 17.4721 17.2581C17.4721 17.4362 17.3223 17.5807 17.1371 17.5807Z" fill="#4BC3EF"/>
<path id="Vector_3" d="M14.2634 8.61647L9.0611 6.11198C9.01456 6.08956 8.96722 6.07261 8.91963 6.06128L8.38257 6.68901V11.698L9.0611 11.9628L14.2634 9.45835L14.4791 8.77913C14.4226 8.7144 14.3507 8.65854 14.2634 8.61647Z" fill="white"/>
<path id="Vector_4" d="M2.39589 15.3226C1.65578 15.3226 1.05579 14.7449 1.05579 14.0323V2.91211C0.645429 3.26648 0.385742 3.78234 0.385742 4.35484V14.0323C0.385742 15.1012 1.2857 15.9677 2.39589 15.9677H19.1473C19.7418 15.9677 20.2777 15.7177 20.6457 15.3226H2.39589Z" fill="#1BADDE"/>
<path id="Vector_5" d="M10.3741 10.7567C9.70586 11.0784 8.91954 10.6105 8.91954 9.89108V6.06132C8.51169 5.96405 8.09131 6.25948 8.09131 6.68909V11.6981C8.09131 12.1777 8.61551 12.4896 9.06101 12.2751L14.2633 9.77065C14.6695 9.57507 14.7411 9.08065 14.479 8.77925L10.3741 10.7567Z" fill="#E3F5FF"/>
</g>
</g>
<defs>
<clipPath id="clip0_6810_6288">
<rect width="20.7717" height="20" fill="white" transform="translate(0.385742)"/>
</clipPath>
</defs>
</svg>
