<svg width="20" height="20" viewBox="0 0 20 20" fill="none" xmlns="http://www.w3.org/2000/svg">
<g id="notification 1" clip-path="url(#clip0_132_1191)">
<path id="Vector" d="M9.15356 20C7.43115 20 6.02856 18.5983 6.02856 16.875C6.02856 16.53 6.30856 16.25 6.65356 16.25C6.99857 16.25 7.27856 16.53 7.27856 16.875C7.27856 17.9092 8.12024 18.75 9.15356 18.75C10.1869 18.75 11.0286 17.9092 11.0286 16.875C11.0286 16.53 11.3086 16.25 11.6536 16.25C11.9986 16.25 12.2786 16.53 12.2786 16.875C12.2786 18.5983 10.8761 20 9.15356 20Z" fill="#5C5E6B"/>
<path id="Vector_2" d="M16.0286 17.5H2.27859C1.47446 17.5 0.820312 16.8459 0.820312 16.0417C0.820312 15.6149 1.00616 15.2109 1.33026 14.9333C1.35117 14.915 1.3736 14.8984 1.39694 14.8833C2.62024 13.8158 3.32031 12.28 3.32031 10.6583V8.33328C3.32031 5.11673 5.93781 2.5 9.15359 2.5C9.28696 2.5 9.43115 2.50244 9.56451 2.52502C9.90524 2.58163 10.1353 2.90421 10.0786 3.24417C10.022 3.58414 9.6936 3.81424 9.35944 3.75748C9.29276 3.74664 9.21951 3.75 9.15359 3.75C6.62704 3.75 4.57031 5.80582 4.57031 8.33328V10.6583C4.57031 12.6717 3.68774 14.5767 2.15118 15.8841C2.13867 15.8942 2.12784 15.9033 2.11441 15.9125C2.09198 15.9409 2.07031 15.9842 2.07031 16.0417C2.07031 16.1549 2.16537 16.25 2.27859 16.25H16.0286C16.142 16.25 16.237 16.1549 16.237 16.0417C16.237 15.9833 16.2154 15.9409 16.192 15.9125C16.1795 15.9033 16.1687 15.8942 16.1562 15.8841C14.6187 14.5758 13.737 12.6717 13.737 10.6583V9.75006C13.737 9.40506 14.017 9.12506 14.362 9.12506C14.707 9.12506 14.987 9.40506 14.987 9.75006V10.6583C14.987 12.2809 15.6879 13.8174 16.9128 14.8859C16.9353 14.9008 16.9569 14.9167 16.9769 14.9342C17.3012 15.2109 17.487 15.6149 17.487 16.0417C17.487 16.8459 16.8329 17.5 16.0286 17.5Z" fill="#5C5E6B"/>
<path id="Vector_3" d="M14.987 8.33328C12.6895 8.33328 10.8203 6.46423 10.8203 4.16672C10.8203 1.8692 12.6895 0 14.987 0C17.2845 0 19.1536 1.8692 19.1536 4.16672C19.1536 6.46423 17.2845 8.33328 14.987 8.33328ZM14.987 1.25C13.3786 1.25 12.0703 2.55829 12.0703 4.16672C12.0703 5.77499 13.3786 7.08328 14.987 7.08328C16.5953 7.08328 17.9036 5.77499 17.9036 4.16672C17.9036 2.55829 16.5953 1.25 14.987 1.25Z" fill="#5C5E6B"/>
</g>
<defs>
<clipPath id="clip0_132_1191">
<rect width="20" height="20" fill="white"/>
</clipPath>
</defs>
</svg>
