<svg width="20" height="20" viewBox="0 0 20 20" fill="none" xmlns="http://www.w3.org/2000/svg">
<path d="M6.25419 20C4.74565 19.999 3.28836 19.4525 2.15123 18.4612C1.01411 17.4699 0.273886 16.1008 0.0671578 14.6065C-0.13957 13.1122 0.201148 11.5935 1.02644 10.3308C1.85173 9.068 3.1059 8.14633 4.55752 7.73585C5.61263 7.4337 6.72943 7.41989 7.79169 7.69585L14.3817 1.10752C14.7315 0.755252 15.1478 0.475961 15.6065 0.285846C16.0651 0.0957305 16.5569 -0.00142484 17.0534 1.57894e-05C17.8347 0.000677816 18.5838 0.311342 19.1362 0.863806C19.6887 1.41627 19.9994 2.16538 20 2.94668C20.0013 3.44317 19.9042 3.935 19.7142 4.39372C19.5243 4.85244 19.2453 5.26895 18.8934 5.61918L18.3334 6.17918C18.02 6.49038 17.5966 6.66554 17.155 6.66668H15.8334V7.50002C15.8334 7.94204 15.6578 8.36597 15.3452 8.67853C15.0326 8.99109 14.6087 9.16668 14.1667 9.16668H13.3334V10.4883C13.3339 10.7073 13.2911 10.9242 13.2073 11.1265C13.1234 11.3287 13.0003 11.5123 12.845 11.6667L12.3034 12.2083C12.5808 13.2701 12.5673 14.387 12.2642 15.4417C11.9231 16.6434 11.2311 17.7159 10.2768 18.5219C9.32249 19.3279 8.14932 19.8306 6.90752 19.9658C6.69047 19.9884 6.47241 19.9998 6.25419 20ZM6.25419 9.16668C5.40098 9.16586 4.56448 9.4032 3.83884 9.852C3.11321 10.3008 2.52726 10.9432 2.14694 11.707C1.76662 12.4708 1.60705 13.3255 1.68617 14.175C1.76529 15.0246 2.07997 15.8352 2.59479 16.5156C3.1096 17.1959 3.80412 17.7191 4.60015 18.0262C5.39618 18.3333 6.26213 18.4121 7.10051 18.2537C7.93889 18.0953 8.71643 17.7061 9.34558 17.1298C9.97474 16.5535 10.4305 15.813 10.6617 14.9917C10.9217 14.0888 10.8925 13.1272 10.5784 12.2417C10.5271 12.0938 10.5185 11.9345 10.5536 11.7819C10.5886 11.6294 10.666 11.4898 10.7767 11.3792L11.6667 10.4883V9.16668C11.6667 8.72466 11.8423 8.30073 12.1548 7.98817C12.4674 7.67561 12.8913 7.50002 13.3334 7.50002H14.1667V6.66668C14.1667 6.22466 14.3423 5.80073 14.6548 5.48817C14.9674 5.17561 15.3913 5.00002 15.8334 5.00002H17.155L17.715 4.44002C17.9117 4.24431 18.0675 4.01157 18.1737 3.75525C18.2798 3.49892 18.3341 3.22411 18.3334 2.94668C18.3331 2.60742 18.1983 2.2821 17.9585 2.04212C17.7187 1.80215 17.3935 1.66712 17.0542 1.66668C16.7766 1.666 16.5016 1.72037 16.2451 1.82665C15.9886 1.93293 15.7558 2.089 15.56 2.28585L8.61752 9.22752C8.50673 9.33825 8.36696 9.41551 8.21426 9.45045C8.06156 9.48538 7.90211 9.47657 7.75419 9.42502C7.27091 9.25486 6.76238 9.16752 6.25002 9.16668H6.25419ZM4.16669 15C4.16669 15.1648 4.21556 15.3259 4.30713 15.463C4.3987 15.6 4.52885 15.7068 4.68112 15.7699C4.83339 15.833 5.00095 15.8495 5.1626 15.8173C5.32425 15.7852 5.47273 15.7058 5.58928 15.5893C5.70582 15.4727 5.78519 15.3242 5.81734 15.1626C5.8495 15.0009 5.83299 14.8334 5.76992 14.6811C5.70685 14.5288 5.60004 14.3987 5.463 14.3071C5.32596 14.2156 5.16484 14.1667 5.00002 14.1667C4.77901 14.1667 4.56705 14.2545 4.41077 14.4108C4.25449 14.567 4.16669 14.779 4.16669 15Z" fill="#273043"/>
</svg>
