<svg width="22" height="20" viewBox="0 0 22 20" fill="none" xmlns="http://www.w3.org/2000/svg">
<g id="file 1">
<g id="Group">
<path id="Vector" d="M18.1271 2.26392H17.5197V16.6311C17.5197 17.5856 16.7128 18.3625 15.7215 18.3625H9.56766H4.67407V18.8951C4.67407 19.505 5.18816 19.9999 5.82155 19.9999H11.9732H18.1249C18.7583 19.9999 19.2724 19.505 19.2724 18.8951V3.36876C19.2724 2.7589 18.7605 2.26392 18.1271 2.26392Z" fill="#3BBFFF"/>
<path id="Vector_2" d="M9.56775 17.736H15.7194C16.3528 17.736 16.8669 17.241 16.8669 16.6312V2.264V1.10485C16.8669 0.494988 16.3528 0 15.7194 0H9.56775H7.52225V0.365497C7.52657 0.403091 7.52876 0.442774 7.52876 0.482457V2.89056V3.50878C7.52876 4.36717 6.80426 5.06475 5.91275 5.06475H5.27068H2.76966C2.73712 5.06475 2.70241 5.06266 2.66987 5.06057H2.27075V16.6312C2.27075 17.241 2.78484 17.736 3.41823 17.736H4.67633H9.56775ZM9.79985 13.9808H5.7891C5.48976 13.9808 5.24682 13.7469 5.24682 13.4587C5.24682 13.1704 5.48976 12.9365 5.7891 12.9365H9.80202C10.1014 12.9365 10.3443 13.1704 10.3443 13.4587C10.3443 13.7469 10.0992 13.9808 9.79985 13.9808ZM13.8128 11.3158H5.7891C5.48976 11.3158 5.24682 11.0819 5.24682 10.7937C5.24682 10.5054 5.48976 10.2715 5.7891 10.2715H13.8128C14.1121 10.2715 14.3551 10.5054 14.3551 10.7937C14.3551 11.0819 14.1121 11.3158 13.8128 11.3158ZM5.7891 7.44153H13.8128C14.1121 7.44153 14.3551 7.67545 14.3551 7.96367C14.3551 8.25189 14.1121 8.48581 13.8128 8.48581H5.7891C5.48976 8.48581 5.24682 8.25189 5.24682 7.96367C5.24682 7.67545 5.48976 7.44153 5.7891 7.44153Z" fill="#3BBFFF"/>
<path id="Vector_3" d="M2.76956 4.43808H5.91265C5.91482 4.43808 5.91916 4.43808 5.92133 4.43808C6.44626 4.4339 6.87141 4.02454 6.87575 3.51911C6.87575 3.51702 6.87575 3.51285 6.87575 3.51076V0.48235C6.87575 0.202483 6.63714 0.0166016 6.38988 0.0166016C6.27058 0.0166016 6.15128 0.0583727 6.0515 0.154446L2.42683 3.64442C2.12315 3.93682 2.3379 4.43808 2.76956 4.43808Z" fill="#3BBFFF"/>
</g>
</g>
</svg>
