<svg width="20" height="20" viewBox="0 0 20 20" fill="none" xmlns="http://www.w3.org/2000/svg">
<g clip-path="url(#clip0_7023_113)">
<path d="M17.5 20H15.8333V15.7975C15.8327 15.1441 15.5728 14.5177 15.1109 14.0558C14.6489 13.5938 14.0225 13.334 13.3692 13.3333H6.63083C5.9775 13.334 5.35111 13.5938 4.88914 14.0558C4.42716 14.5177 4.16733 15.1441 4.16667 15.7975V20H2.5V15.7975C2.50132 14.7023 2.93696 13.6524 3.71135 12.878C4.48575 12.1036 5.53567 11.6679 6.63083 11.6666H13.3692C14.4643 11.6679 15.5143 12.1036 16.2886 12.878C17.063 13.6524 17.4987 14.7023 17.5 15.7975V20Z" fill="#5C5E6B"/>
<path d="M10 10C9.0111 10 8.0444 9.70676 7.22215 9.15735C6.39991 8.60794 5.75904 7.82705 5.3806 6.91342C5.00217 5.99979 4.90315 4.99446 5.09608 4.02455C5.289 3.05465 5.76521 2.16373 6.46447 1.46447C7.16373 0.765206 8.05465 0.289002 9.02455 0.0960758C9.99446 -0.0968503 10.9998 0.00216643 11.9134 0.380605C12.827 0.759043 13.6079 1.39991 14.1573 2.22215C14.7068 3.0444 15 4.0111 15 5C14.9987 6.32568 14.4715 7.59668 13.5341 8.53407C12.5967 9.47147 11.3257 9.99868 10 10ZM10 1.66667C9.34073 1.66667 8.69627 1.86217 8.1481 2.22844C7.59994 2.59471 7.1727 3.1153 6.9204 3.72439C6.66811 4.33348 6.6021 5.0037 6.73072 5.6503C6.85934 6.29691 7.1768 6.89085 7.64298 7.35703C8.10915 7.8232 8.7031 8.14067 9.3497 8.26929C9.9963 8.3979 10.6665 8.33189 11.2756 8.0796C11.8847 7.82731 12.4053 7.40007 12.7716 6.8519C13.1378 6.30374 13.3333 5.65927 13.3333 5C13.3333 4.11595 12.9821 3.2681 12.357 2.64298C11.7319 2.01786 10.8841 1.66667 10 1.66667Z" fill="#5C5E6B"/>
</g>
<defs>
<clipPath id="clip0_7023_113">
<rect width="20" height="20" fill="white"/>
</clipPath>
</defs>
</svg>
