<svg width="14" height="20" viewBox="0 0 14 20" fill="none" xmlns="http://www.w3.org/2000/svg">
<path d="M9.49998 20H4.49998C2.20248 20 0.333313 18.1308 0.333313 15.8333V4.16667C0.333313 1.86917 2.20248 0 4.49998 0H9.49998C11.7975 0 13.6666 1.86917 13.6666 4.16667V15.8333C13.6666 18.1308 11.7975 20 9.49998 20ZM4.49998 1.66667C3.12165 1.66667 1.99998 2.78833 1.99998 4.16667V15.8333C1.99998 17.2117 3.12165 18.3333 4.49998 18.3333H9.49998C10.8783 18.3333 12 17.2117 12 15.8333V4.16667C12 2.78833 10.8783 1.66667 9.49998 1.66667H4.49998ZM8.66665 15.8333C8.66665 15.3733 8.29331 15 7.83331 15H6.16665C5.70665 15 5.33331 15.3733 5.33331 15.8333C5.33331 16.2933 5.70665 16.6667 6.16665 16.6667H7.83331C8.29331 16.6667 8.66665 16.2933 8.66665 15.8333Z" fill="#273043"/>
</svg>
