<svg width="22" height="20" viewBox="0 0 22 20" fill="none" xmlns="http://www.w3.org/2000/svg">
<g id="image" clip-path="url(#clip0_6810_6103)">
<path id="Vector" d="M21.1574 10C21.1574 8.08333 21.0709 6.33333 20.7247 5.33333C20.3785 4.16667 19.9458 3.08333 18.9072 2.08333C17.6089 0.916667 16.4838 0.583333 14.7528 0.25C13.5412 0.0833333 12.0698 0 11.2043 0C10.9447 0 10.685 0 10.4254 0C9.47336 0 8.08858 0.0833333 6.79035 0.25C5.05938 0.583333 3.84769 1 2.63601 2.08333C1.51088 3.08333 1.16468 4.16667 0.818486 5.33333C0.472291 6.33333 0.385742 8.08333 0.385742 10C0.385742 11.9167 0.472291 13.6667 0.818486 14.6667C1.16468 15.8333 1.59742 16.9167 2.63601 17.9167C3.93424 19.0833 5.05938 19.4167 6.79035 19.75C8.17513 20 9.90611 20 10.7716 20C11.6371 20 13.3681 20 14.8394 19.75C16.4838 19.4167 17.6955 19.0833 18.9937 17.9167C20.0323 17 20.4651 15.9167 20.8113 14.6667C21.0709 13.6667 21.1574 11.9167 21.1574 10Z" fill="#379DF1"/>
<path id="Vector_2" d="M16.9166 14.5833V5.41659C16.9166 4.66659 16.3107 4.08325 15.5318 4.08325H6.01143C5.23249 4.08325 4.62665 4.66659 4.62665 5.41659V14.5833C4.62665 15.3333 5.23249 15.9166 6.01143 15.9166H15.5318C16.3107 15.9166 16.9166 15.3333 16.9166 14.5833ZM8.69444 11.3333L10.1658 12.9999L12.2429 10.4166C12.416 10.2499 12.6757 10.2499 12.7622 10.4166L15.1856 13.4999C15.3587 13.6666 15.1856 13.9999 14.926 13.9999H6.70382C6.44417 13.9999 6.18453 13.6666 6.44417 13.4999L8.17515 11.4166C8.2617 11.0833 8.52134 11.0833 8.69444 11.3333Z" fill="white"/>
</g>
<defs>
<clipPath id="clip0_6810_6103">
<rect width="20.7717" height="20" fill="white" transform="translate(0.385742)"/>
</clipPath>
</defs>
</svg>
