<svg width="88" height="88" viewBox="0 0 88 88" fill="none" xmlns="http://www.w3.org/2000/svg">
<g id="circle-user 1" clip-path="url(#clip0_4184_11980)">
<path id="Vector" d="M58.6667 85.4847C54.076 87.1127 49.1407 88 44 88C38.8593 88 33.924 87.1127 29.3333 85.4847V77C29.3333 68.9113 35.9113 62.3333 44 62.3333C52.0887 62.3333 58.6667 68.9113 58.6667 77V85.4847ZM44 25.6667C39.9557 25.6667 36.6667 28.9557 36.6667 33C36.6667 37.0443 39.9557 40.3333 44 40.3333C48.0443 40.3333 51.3333 37.0443 51.3333 33C51.3333 28.9557 48.0443 25.6667 44 25.6667ZM88 44C88 60.2543 79.1413 74.4737 66 82.093V77C66 64.867 56.133 55 44 55C31.867 55 22 64.867 22 77V82.093C8.85867 74.4737 0 60.2543 0 44C0 19.7377 19.7377 0 44 0C68.2623 0 88 19.7377 88 44ZM58.6667 33C58.6667 24.9113 52.0887 18.3333 44 18.3333C35.9113 18.3333 29.3333 24.9113 29.3333 33C29.3333 41.0887 35.9113 47.6667 44 47.6667C52.0887 47.6667 58.6667 41.0887 58.6667 33Z" fill="#DADADA"/>
</g>
<defs>
<clipPath id="clip0_4184_11980">
<rect width="88" height="88" fill="white"/>
</clipPath>
</defs>
</svg>
