<svg width="20" height="20" viewBox="0 0 20 20" fill="none" xmlns="http://www.w3.org/2000/svg">
<g id="rotated 1">
<g id="Layer 2">
<path id="Vector" d="M15.3312 16.125C15.2208 16.0143 15.0729 15.9491 14.9167 15.9421C14.7605 15.9352 14.6073 15.9871 14.4875 16.0875L14.4437 16.1312C14.3252 16.2312 14.2481 16.3716 14.2273 16.5252C14.2065 16.6788 14.2436 16.8346 14.3312 16.9625C14.3806 17.0336 14.4442 17.0938 14.518 17.1391C14.5918 17.1843 14.6742 17.2138 14.76 17.2255C14.8458 17.2373 14.9331 17.2311 15.0164 17.2073C15.0997 17.1836 15.1771 17.1427 15.2437 17.0875L15.2937 17.05C15.3606 16.9941 15.4151 16.9248 15.4536 16.8465C15.4921 16.7683 15.5138 16.6829 15.5174 16.5958C15.5209 16.5087 15.5062 16.4218 15.4741 16.3407C15.4421 16.2596 15.3934 16.1861 15.3312 16.125Z" fill="#575762"/>
<path id="Vector_2" d="M14.4813 5.58123C14.6011 5.68165 14.7542 5.73351 14.9104 5.72656C15.0666 5.71962 15.2145 5.65439 15.325 5.54373C15.3868 5.48216 15.435 5.40833 15.4665 5.32701C15.4981 5.24569 15.5122 5.15866 15.5081 5.07154C15.504 4.98441 15.4817 4.89911 15.4426 4.82113C15.4035 4.74314 15.3486 4.6742 15.2813 4.61873L15.2375 4.58123C15.1708 4.52596 15.0934 4.48515 15.0101 4.46138C14.9269 4.43761 14.8396 4.43141 14.7538 4.44316C14.668 4.45491 14.5856 4.48437 14.5118 4.52965C14.4379 4.57494 14.3744 4.63507 14.325 4.70623C14.2355 4.83457 14.1974 4.99181 14.2183 5.14687C14.2391 5.30194 14.3173 5.44355 14.4375 5.54373L14.4813 5.58123Z" fill="#575762"/>
<path id="Vector_3" d="M13.2 17.6188C13.1343 17.478 13.0185 17.3667 12.8753 17.3066C12.732 17.2465 12.5715 17.2419 12.425 17.2938H12.3687C12.2209 17.3465 12.0984 17.4529 12.0254 17.5919C11.9525 17.7308 11.9345 17.8921 11.975 18.0438C11.9975 18.1276 12.0371 18.2058 12.0915 18.2734C12.1459 18.3411 12.2137 18.3967 12.2907 18.4366C12.3677 18.4766 12.4522 18.5001 12.5388 18.5057C12.6255 18.5112 12.7123 18.4986 12.7937 18.4688H12.85C12.931 18.4388 13.0049 18.3924 13.0671 18.3325C13.1293 18.2725 13.1784 18.2003 13.2113 18.1205C13.2442 18.0406 13.2601 17.9548 13.2582 17.8684C13.2563 17.7821 13.2364 17.6971 13.2 17.6188Z" fill="#575762"/>
<path id="Vector_4" d="M12.3563 4.37503H12.4125C12.5598 4.42868 12.7218 4.42504 12.8665 4.36485C13.0112 4.30465 13.128 4.19229 13.1938 4.05003C13.2301 3.97133 13.2496 3.88594 13.2511 3.79928C13.2527 3.71262 13.2361 3.62659 13.2026 3.54665C13.1691 3.46672 13.1194 3.39462 13.0565 3.33495C12.9937 3.27528 12.9191 3.22933 12.8375 3.20003H12.7813C12.6994 3.17026 12.6121 3.15794 12.5252 3.16386C12.4383 3.16978 12.3535 3.19382 12.2764 3.23443C12.1993 3.27504 12.1316 3.33133 12.0775 3.39967C12.0234 3.46801 11.9843 3.54691 11.9625 3.63128C11.9237 3.78202 11.9426 3.9418 12.0154 4.07936C12.0883 4.21692 12.2098 4.32235 12.3563 4.37503Z" fill="#575762"/>
<path id="Vector_5" d="M16.825 14C16.6844 13.9352 16.5247 13.9248 16.3769 13.971C16.2291 14.0172 16.1037 14.1166 16.025 14.25L15.9938 14.3062C15.9165 14.4402 15.8916 14.598 15.9239 14.7492C15.9562 14.9005 16.0435 15.0343 16.1688 15.125C16.2396 15.176 16.3203 15.2117 16.4058 15.2296C16.4912 15.2476 16.5795 15.2474 16.6649 15.2291C16.7502 15.2109 16.8308 15.175 16.9015 15.1236C16.9721 15.0723 17.0312 15.0068 17.075 14.9312L17.1063 14.875C17.1488 14.7998 17.1753 14.7167 17.1841 14.6308C17.1929 14.5449 17.1838 14.4581 17.1574 14.3759C17.1309 14.2937 17.0878 14.2178 17.0306 14.1531C16.9734 14.0884 16.9034 14.0363 16.825 14Z" fill="#575762"/>
<path id="Vector_6" d="M17.2687 12.7688C17.3526 12.7919 17.4404 12.7972 17.5264 12.7844C17.6125 12.7716 17.6949 12.741 17.7684 12.6945C17.842 12.648 17.905 12.5867 17.9535 12.5145C18.002 12.4422 18.0348 12.3607 18.05 12.275V12.2188C18.0651 12.1333 18.0622 12.0456 18.0415 11.9613C18.0208 11.8771 17.9828 11.798 17.9299 11.7292C17.877 11.6604 17.8103 11.6034 17.7341 11.5618C17.658 11.5202 17.574 11.4949 17.4875 11.4875C17.3322 11.4742 17.1775 11.5193 17.0538 11.6142C16.9301 11.709 16.8462 11.8466 16.8187 12V12.0625C16.7931 12.2151 16.8248 12.3717 16.908 12.5022C16.9911 12.6326 17.1196 12.7276 17.2687 12.7688Z" fill="#575762"/>
<path id="Vector_7" d="M16.0187 7.41877C16.0975 7.55368 16.224 7.65417 16.3733 7.70045C16.5225 7.74672 16.6837 7.73542 16.825 7.66877C16.9037 7.63198 16.9738 7.57918 17.031 7.51376C17.0881 7.44834 17.131 7.37172 17.1568 7.2888C17.1827 7.20588 17.191 7.11848 17.1812 7.03217C17.1714 6.94586 17.1438 6.86254 17.1 6.78752L17.0687 6.73752C17.0249 6.66289 16.9661 6.59817 16.8959 6.54746C16.8258 6.49675 16.7459 6.46117 16.6613 6.44295C16.5767 6.42474 16.4892 6.4243 16.4044 6.44165C16.3196 6.459 16.2394 6.49378 16.1687 6.54377C16.0424 6.6335 15.9539 6.76695 15.9204 6.91824C15.8869 7.06953 15.9108 7.22786 15.9875 7.36252L16.0187 7.41877Z" fill="#575762"/>
<path id="Vector_8" d="M16.8187 9.60623V9.66873C16.8461 9.82101 16.9291 9.95771 17.0514 10.0524C17.1738 10.147 17.327 10.193 17.4812 10.1812C17.5683 10.1747 17.6529 10.15 17.7298 10.1087C17.8067 10.0675 17.8742 10.0106 17.9277 9.9417C17.9813 9.87282 18.0199 9.79348 18.0409 9.70879C18.062 9.6241 18.0651 9.53594 18.05 9.44998V9.38748C18.0348 9.30182 18.002 9.22026 17.9535 9.14803C17.905 9.0758 17.842 9.01448 17.7684 8.96801C17.6949 8.92153 17.6125 8.89092 17.5264 8.87813C17.4404 8.86534 17.3526 8.87065 17.2687 8.89373C17.1184 8.93496 16.9888 9.03091 16.9056 9.16273C16.8223 9.29456 16.7914 9.45274 16.8187 9.60623Z" fill="#575762"/>
<path id="Vector_9" d="M9.375 18.9375C9.46266 18.9472 9.55138 18.9382 9.63533 18.9112C9.71929 18.8842 9.79657 18.8397 9.86209 18.7807C9.92762 18.7216 9.97991 18.6494 10.0155 18.5687C10.0511 18.488 10.0693 18.4007 10.0687 18.3125C10.0695 18.157 10.0123 18.0068 9.90831 17.8913C9.8043 17.7757 9.66095 17.7031 9.50625 17.6875C7.82755 17.5436 6.26013 16.7884 5.10158 15.5651C3.94303 14.3417 3.27403 12.7356 3.22159 11.0516C3.16916 9.36753 3.73695 7.72288 4.81715 6.42986C5.89735 5.13685 7.41475 4.28552 9.08125 4.03751L8.275 5.15001C8.17947 5.28448 8.14097 5.45126 8.1679 5.614C8.19483 5.77673 8.285 5.92222 8.41875 6.01876C8.55322 6.11428 8.72 6.15278 8.88274 6.12585C9.04547 6.09892 9.19096 6.00876 9.2875 5.87501L10.5375 4.15001C10.6386 4.00742 10.71 3.846 10.7476 3.67531C10.7852 3.50461 10.7881 3.32811 10.7562 3.15626C10.7217 2.98508 10.6537 2.82241 10.5561 2.67761C10.4585 2.53281 10.3332 2.40873 10.1875 2.31251L8.39375 1.16251C8.25368 1.07134 8.08313 1.03955 7.91962 1.07412C7.75612 1.1087 7.61304 1.20681 7.52187 1.34688C7.4307 1.48695 7.39891 1.6575 7.43349 1.821C7.46807 1.98451 7.56618 2.12759 7.70625 2.21876L8.65 2.84376C6.70996 3.18946 4.96169 4.22845 3.7307 5.76726C2.49972 7.30606 1.86993 9.2398 1.95862 11.2084C2.0473 13.177 2.8484 15.0463 4.21276 16.4682C5.57712 17.8901 7.41174 18.7676 9.375 18.9375Z" fill="#575762"/>
</g>
</g>
</svg>
