<svg width="16" height="16" viewBox="0 0 16 16" fill="none" xmlns="http://www.w3.org/2000/svg">
<g id="search 1" clip-path="url(#clip0_102_590)">
<path id="Vector" d="M15.8046 14.862L11.8253 10.8826C12.9097 9.55637 13.4429 7.86404 13.3145 6.15568C13.1862 4.44733 12.4061 2.85366 11.1357 1.70432C9.86528 0.554984 8.2017 -0.0620951 6.48907 -0.0192739C4.77644 0.0235473 3.14578 0.722992 1.93439 1.93439C0.722992 3.14578 0.0235473 4.77644 -0.0192739 6.48907C-0.0620951 8.2017 0.554984 9.86528 1.70432 11.1357C2.85366 12.4061 4.44733 13.1862 6.15568 13.3145C7.86404 13.4429 9.55637 12.9097 10.8826 11.8253L14.862 15.8046C14.9877 15.9261 15.1561 15.9933 15.3309 15.9918C15.5057 15.9902 15.6729 15.9201 15.7965 15.7965C15.9201 15.6729 15.9902 15.5057 15.9918 15.3309C15.9933 15.1561 15.9261 14.9877 15.8046 14.862ZM6.66664 12C5.61181 12 4.58066 11.6872 3.7036 11.1011C2.82654 10.5151 2.14295 9.68216 1.73929 8.70762C1.33562 7.73308 1.23 6.66073 1.43579 5.62616C1.64158 4.5916 2.14953 3.64129 2.89541 2.89541C3.64129 2.14953 4.5916 1.64158 5.62616 1.43579C6.66073 1.23 7.73308 1.33562 8.70762 1.73929C9.68216 2.14295 10.5151 2.82654 11.1011 3.7036C11.6872 4.58066 12 5.61181 12 6.66664C11.9984 8.08064 11.436 9.43628 10.4361 10.4361C9.43628 11.436 8.08064 11.9984 6.66664 12Z" fill="#0085A5"/>
</g>
<defs>
<clipPath id="clip0_102_590">
<rect width="16" height="16" fill="white"/>
</clipPath>
</defs>
</svg>
