<svg width="32" height="32" viewBox="0 0 32 32" fill="none" xmlns="http://www.w3.org/2000/svg">
<g id="star-3 1" clip-path="url(#clip0_106_761)">
<path id="Vector" d="M0.0836735 12.2739C0.294371 11.6259 0.869087 11.1672 1.54634 11.1059L10.7838 10.2673L14.4345 1.72023C14.704 1.09229 15.3173 0.687012 16 0.687012C16.6826 0.687012 17.2961 1.09229 17.5639 1.72023L21.2146 10.2673L30.4536 11.1059C31.1308 11.1684 31.7043 11.6271 31.9162 12.2739C32.1269 12.9218 31.9324 13.6325 31.4201 14.0818L24.4374 20.2047L26.4962 29.2727C26.6469 29.9395 26.3881 30.6289 25.8348 31.0288C25.5375 31.2449 25.1881 31.3528 24.8375 31.3528C24.5362 31.3528 24.2347 31.2727 23.9654 31.1116L16 26.3488L8.03596 31.1116C7.45172 31.4607 6.71708 31.4287 6.16507 31.0288C5.61184 30.6289 5.35305 29.9395 5.50369 29.2727L7.56256 20.2047L0.579775 14.0818C0.0678043 13.6325 -0.127026 12.9233 0.0836735 12.2739Z" fill="#FFC02D"/>
</g>
<defs>
<clipPath id="clip0_106_761">
<rect width="32" height="32" fill="white" transform="matrix(-1 0 0 1 32 0)"/>
</clipPath>
</defs>
</svg>
