<svg width="16" height="16" viewBox="0 0 16 16" fill="none" xmlns="http://www.w3.org/2000/svg">
<g clip-path="url(#clip0_102_451)">
<path d="M0.0418367 6.13694C0.147185 5.81296 0.434544 5.58358 0.773172 5.55294L5.3919 5.13363L7.21725 0.860116C7.35202 0.546146 7.65866 0.343506 7.99998 0.343506C8.34129 0.343506 8.64806 0.546146 8.78197 0.860116L10.6073 5.13363L15.2268 5.55294C15.5654 5.58419 15.8522 5.81357 15.9581 6.13694C16.0635 6.46092 15.9662 6.81627 15.7101 7.04088L12.2187 10.1023L13.2481 14.6363C13.3234 14.9697 13.194 15.3145 12.9174 15.5144C12.7687 15.6224 12.594 15.6764 12.4188 15.6764C12.2681 15.6764 12.1174 15.6364 11.9827 15.5558L7.99998 13.1744L4.01798 15.5558C3.72586 15.7304 3.35854 15.7144 3.08254 15.5144C2.80592 15.3145 2.67652 14.9697 2.75184 14.6363L3.78128 10.1023L0.289887 7.04088C0.0339022 6.81627 -0.0635128 6.46165 0.0418367 6.13694Z" fill="#FFC02D"/>
</g>
<defs>
<clipPath id="clip0_102_451">
<rect width="16" height="16" fill="white" transform="matrix(-1 0 0 1 16 0)"/>
</clipPath>
</defs>
</svg>
