<svg width="40" height="40" viewBox="0 0 40 40" fill="none" xmlns="http://www.w3.org/2000/svg">
<g clip-path="url(#clip0_1111_9898)">
<path d="M19.9989 0.502455V2.10382L14.0242 2.50841L7.68097 2.10382V0.502455C7.68097 0.22495 7.90592 0 8.18342 0H19.4964C19.7739 0 19.9989 0.22495 19.9989 0.502455Z" fill="#7CA1B1"/>
<path d="M19.9992 0.502213V2.10382L17.4237 2.26479V0.502213C17.4237 0.224547 17.1984 0 16.9207 0H19.4962C19.7738 0 19.9992 0.224547 19.9992 0.502213Z" fill="#678D98"/>
<path d="M26.9526 4.53998V36.9279C26.9526 38.2736 25.8621 39.3641 24.5164 39.3641H3.16346C1.81779 39.3641 0.72644 38.2736 0.72644 36.9279V4.53998C0.72644 3.1943 1.81779 2.10376 3.16346 2.10376H4.44918L13.8402 2.723L23.0141 2.10376H24.5164C25.8621 2.10376 26.9526 3.1943 26.9526 4.53998Z" fill="#5986CB"/>
<path d="M26.9529 4.54007V36.928C26.9529 38.2737 25.8624 39.3642 24.5167 39.3642H23.0141C24.3598 39.3642 25.4503 38.2737 25.4503 36.928V4.54007C25.4503 2.01879 23.2934 2.10386 23.2934 2.10386H24.5167C25.8624 2.10386 26.9529 3.1944 26.9529 4.54007Z" fill="#4278C3"/>
<path d="M24.5167 3.3271V34.0531C24.5167 34.7291 23.9686 35.2764 23.2934 35.2764H4.38713C3.71107 35.2764 3.16379 34.7291 3.16379 34.0531V3.3271C3.16379 2.65185 3.71107 2.10376 4.38713 2.10376H23.2934C23.9686 2.10376 24.5167 2.65185 24.5167 3.3271Z" fill="#C8EFFE"/>
<path d="M24.5167 3.3271V34.0531C24.5167 34.7291 23.9686 35.2764 23.2934 35.2764H21.1348C21.8109 35.2764 22.3582 34.7291 22.3582 34.0531V3.3271C22.3582 2.65185 21.8109 2.10376 21.1348 2.10376H23.2934C23.9686 2.10376 24.5167 2.65185 24.5167 3.3271Z" fill="#99E6FC"/>
<path d="M21.2577 10.5561H6.79075C6.52548 10.5561 6.31042 10.341 6.31042 10.0758V8.62192C6.31042 8.35665 6.52548 8.1416 6.79075 8.1416H21.2577C21.523 8.1416 21.738 8.35665 21.738 8.62192V10.0758C21.738 10.341 21.523 10.5561 21.2577 10.5561Z" fill="#7CA1B1"/>
<path d="M17.7682 2.10376V3.23454C17.7682 3.99994 17.1461 4.62287 16.3807 4.62287H11.299C10.5336 4.62287 9.91147 3.99994 9.91147 3.23454V2.10376H8.70422V3.23454C8.70422 4.66553 9.86801 5.83012 11.299 5.83012H16.3807C17.8117 5.83012 18.9755 4.66553 18.9755 3.23454V2.10376H17.7682Z" fill="#EAF6FF"/>
<path d="M10.28 15.1428H6.91395C6.58059 15.1428 6.31033 14.8725 6.31033 14.5392C6.31033 14.2058 6.58059 13.9355 6.91395 13.9355H10.28C10.6134 13.9355 10.8836 14.2058 10.8836 14.5392C10.8836 14.8725 10.6134 15.1428 10.28 15.1428Z" fill="#7CA1B1"/>
<path d="M17.6561 19.1259H6.91395C6.58059 19.1259 6.31033 18.8557 6.31033 18.5223C6.31033 18.189 6.58059 17.9187 6.91395 17.9187H17.656C17.9894 17.9187 18.2596 18.189 18.2596 18.5223C18.2596 18.8557 17.9894 19.1259 17.6561 19.1259Z" fill="#7CA1B1"/>
<path d="M16.5888 23.1089H6.91395C6.58059 23.1089 6.31033 22.8386 6.31033 22.5052C6.31033 22.1719 6.58059 21.9016 6.91395 21.9016H16.5887C16.9221 21.9016 17.1923 22.1719 17.1923 22.5052C17.1923 22.8386 16.9222 23.1089 16.5888 23.1089Z" fill="#7CA1B1"/>
<path d="M15.5215 27.0923H6.91395C6.58059 27.0923 6.31033 26.822 6.31033 26.4886C6.31033 26.1553 6.58059 25.885 6.91395 25.885H15.5215C15.8549 25.885 16.1251 26.1553 16.1251 26.4886C16.1251 26.822 15.8549 27.0923 15.5215 27.0923Z" fill="#7CA1B1"/>
<path d="M10.28 31.0754H6.91395C6.58059 31.0754 6.31033 30.8051 6.31033 30.4718C6.31033 30.1384 6.58059 29.8682 6.91395 29.8682H10.28C10.6134 29.8682 10.8836 30.1384 10.8836 30.4718C10.8836 30.8051 10.6134 31.0754 10.28 31.0754Z" fill="#7CA1B1"/>
<path d="M38.6496 15.4234L22.7993 11.1764C22.3504 11.056 21.889 11.3225 21.7687 11.7714L15.6268 34.6934C15.5065 35.1423 15.7729 35.6037 16.2218 35.724L32.0721 39.9711C32.521 40.0914 32.9824 39.825 33.1028 39.3761L39.2447 16.4541C39.365 16.0052 39.0986 15.5438 38.6496 15.4234Z" fill="#99E6FC"/>
<path d="M37.2589 13.0151L31.117 35.9369C30.9969 36.3854 30.5353 36.6525 30.0868 36.5324L14.2362 32.2852C13.7877 32.1651 13.5207 31.7028 13.641 31.2542L19.7829 8.33238C19.9033 7.88305 20.3653 7.61689 20.8139 7.73713L36.6645 11.9843C37.1129 12.1045 37.3793 12.5658 37.2589 13.0151Z" fill="#EAF6FF"/>
<path d="M37.2587 13.0148L31.1171 35.9371C30.9972 36.3854 30.5352 36.6526 30.0869 36.5327L27.5469 35.8518C27.9952 35.9717 28.4579 35.7053 28.5779 35.2563L34.7195 12.3347C34.8394 11.888 34.5763 11.4285 34.132 11.3062L36.664 11.9846C37.1131 12.1045 37.3795 12.5657 37.2587 13.0148Z" fill="#C8EFFE"/>
<path d="M24.4133 31.937C27.6898 31.937 30.3459 29.2809 30.3459 26.0044C30.3459 22.7279 27.6898 20.0718 24.4133 20.0718C21.1368 20.0718 18.4807 22.7279 18.4807 26.0044C18.4807 29.2809 21.1368 31.937 24.4133 31.937Z" fill="#46CC8D"/>
<path d="M32.0192 18.7796L21.4389 15.9445C21.1957 15.8793 21.0514 15.6294 21.1166 15.3862L22.1125 11.669C22.1777 11.4258 22.4277 11.2815 22.6709 11.3467L33.2512 14.1817C33.4944 14.2469 33.6387 14.4969 33.5735 14.74L32.5776 18.4572C32.5124 18.7004 32.2624 18.8447 32.0192 18.7796Z" fill="#80B4FB"/>
<path d="M24.0866 27.8296C23.878 27.8296 23.6751 27.7213 23.5633 27.5277L21.6122 24.1482C21.4455 23.8595 21.5444 23.4904 21.8331 23.3237C22.1218 23.1569 22.4909 23.2559 22.6576 23.5446L24.307 26.4013L29.6377 23.3237C29.9264 23.1569 30.2955 23.2559 30.4622 23.5446C30.6289 23.8333 30.53 24.2025 30.2413 24.3692L24.3879 27.7486C24.2928 27.8035 24.189 27.8296 24.0866 27.8296Z" fill="#B0E7C9"/>
</g>
<defs>
<clipPath id="clip0_1111_9898">
<rect width="40" height="40" fill="white"/>
</clipPath>
</defs>
</svg>
