<svg width="20" height="19" viewBox="0 0 20 19" fill="none" xmlns="http://www.w3.org/2000/svg">
<path id="Vector" d="M18.5 0.968889C18.0315 0.577163 17.4826 0.293381 16.8921 0.137693C16.3016 -0.0179947 15.684 -0.0417698 15.0833 0.0680559L11.8983 0.646389C11.163 0.781425 10.4944 1.15974 10 1.72056C9.5043 1.15878 8.8338 0.780371 8.09667 0.646389L4.91667 0.0680559C4.31596 -0.0418659 3.69844 -0.0184023 3.10781 0.136786C2.51718 0.291974 1.96789 0.575092 1.4988 0.966101C1.02972 1.35711 0.652322 1.84645 0.393318 2.39948C0.134315 2.95251 4.0677e-05 3.55571 0 4.16639L0 13.1606C4.78799e-05 14.1362 0.342481 15.0809 0.967611 15.83C1.59274 16.5791 2.46092 17.0851 3.42083 17.2597L8.65917 18.2122C9.5458 18.3733 10.4542 18.3733 11.3408 18.2122L16.5833 17.2597C17.5425 17.0842 18.4097 16.5779 19.034 15.8289C19.6583 15.0799 20.0001 14.1356 20 13.1606V4.16639C20.0004 3.55593 19.8662 2.95289 19.6069 2.40022C19.3476 1.84755 18.9697 1.35884 18.5 0.968889ZM9.16667 16.6064C9.09667 16.5964 9.02667 16.5847 8.95667 16.5722L3.71917 15.6206C3.14314 15.5158 2.62216 15.2121 2.24707 14.7625C1.87198 14.313 1.66658 13.746 1.66667 13.1606V4.16639C1.66667 3.50335 1.93006 2.86746 2.3989 2.39862C2.86774 1.92978 3.50363 1.66639 4.16667 1.66639C4.31758 1.66675 4.46816 1.68041 4.61667 1.70722L7.8 2.29056C8.18301 2.36064 8.52939 2.56262 8.77904 2.86143C9.02868 3.16024 9.16582 3.53702 9.16667 3.92639V16.6064ZM18.3333 13.1606C18.3334 13.746 18.128 14.313 17.7529 14.7625C17.3778 15.2121 16.8569 15.5158 16.2808 15.6206L11.0433 16.5722C10.9733 16.5847 10.9033 16.5964 10.8333 16.6064V3.92639C10.8333 3.53607 10.9702 3.1581 11.2203 2.8584C11.4703 2.55869 11.8176 2.35626 12.2017 2.28639L15.3858 1.70306C15.7464 1.63745 16.117 1.65193 16.4714 1.74548C16.8258 1.83903 17.1553 2.00936 17.4365 2.24439C17.7178 2.47943 17.9439 2.77343 18.0988 3.10557C18.2538 3.43772 18.3339 3.79987 18.3333 4.16639V13.1606Z" fill="#444444"/>
</svg>
