<svg width="20" height="20" viewBox="0 0 20 20" fill="none" xmlns="http://www.w3.org/2000/svg">
<g id="top-rated 1">
<g id="Group">
<path id="Vector" d="M3.6339 3.50955C3.74608 3.54637 3.87043 3.48579 3.90782 3.37013L4.23246 2.37071C4.26956 2.25651 4.20695 2.13419 4.09303 2.09709C3.97825 2.05941 3.85622 2.1226 3.81912 2.23651L3.49448 3.23593C3.45738 3.34984 3.51999 3.47245 3.6339 3.50955Z" fill="#FFC02D"/>
<path id="Vector_2" d="M2.08927 8.67768C2.20347 8.64058 2.26579 8.51797 2.22869 8.40406L1.7513 6.93449C1.50173 6.16667 1.77275 5.33217 2.42608 4.85768L2.80811 4.58C2.90521 4.50956 2.92666 4.37362 2.85623 4.27623C2.78608 4.17971 2.65014 4.15797 2.55275 4.22841L2.17072 4.50609C1.36463 5.09159 1.02985 6.12116 1.33796 7.06869L1.81536 8.53826C1.85275 8.6542 1.9771 8.71478 2.08927 8.67768Z" fill="#FFC02D"/>
<path id="Vector_3" d="M14.0293 14.913C14.4264 14.913 14.7771 14.6579 14.8988 14.2811L15.4032 12.7362C15.4612 12.5507 15.5771 12.3913 15.7336 12.2782L17.0496 11.3217C17.3684 11.0898 17.5046 10.6753 17.38 10.2985L16.8786 8.7536C16.8206 8.57099 16.8206 8.37099 16.8786 8.18838L17.38 6.64345C17.5046 6.26664 17.3684 5.85215 17.0496 5.62026L15.7336 4.66374C15.5771 4.5507 15.4612 4.39128 15.4032 4.20867L14.8988 2.66084C14.7771 2.28403 14.4264 2.02896 14.0293 2.02896H12.4032C12.2119 2.02896 12.0235 1.96809 11.867 1.85504L10.551 0.898522C10.2322 0.666638 9.7974 0.666638 9.47566 0.898522L8.16261 1.85504C8.00609 1.96809 7.81769 2.02896 7.62348 2.02896H6.00029C5.60319 2.02896 5.25247 2.28403 5.12783 2.66084L4.62638 4.20867C4.56551 4.39128 4.44957 4.5507 4.29305 4.66374L2.98 5.62026C2.65826 5.85215 2.52493 6.26664 2.64667 6.64345L3.14812 8.18838C3.20899 8.37099 3.20899 8.57099 3.14812 8.7536L2.64667 10.2985C2.52493 10.6753 2.65826 11.0898 2.98 11.3217L4.29305 12.2782C4.44957 12.3913 4.56551 12.5507 4.62638 12.7362L5.12783 14.2811C5.25247 14.6579 5.60319 14.913 6.00029 14.913H7.62348C7.81769 14.913 8.00609 14.9739 8.16261 15.0869L9.47566 16.0435C9.7974 16.2753 10.2322 16.2753 10.551 16.0435L11.867 15.0869C12.0235 14.9739 12.2119 14.913 12.4032 14.913H14.0293ZM12.493 3.15417C12.5478 3.04751 12.6794 3.00461 12.7858 3.06026C13.9701 3.66896 14.9371 4.66548 15.509 5.86664C15.5609 5.97504 15.5148 6.10461 15.4064 6.1562C15.3006 6.20722 15.169 6.16374 15.1168 6.0536C14.5855 4.93794 13.6872 4.01244 12.5872 3.44722C12.4803 3.39186 12.438 3.26084 12.493 3.15417ZM11.349 2.75823C11.38 2.64287 11.5 2.57417 11.6157 2.60548C11.7415 2.63939 11.8655 2.67794 11.9881 2.72026C12.1017 2.7591 12.1623 2.88287 12.1232 2.9962C12.0835 3.11215 11.9571 3.17012 11.8473 3.13128C11.7336 3.09244 11.6186 3.05678 11.502 3.02519C11.3861 2.9936 11.3174 2.87417 11.349 2.75823ZM10.0148 13.1739C7.41479 13.1739 5.31044 11.0695 5.31044 8.46954C5.31044 5.87244 7.41479 3.76809 10.0148 3.76809C12.6119 3.76809 14.7191 5.87244 14.7191 8.46954C14.7191 11.0695 12.6119 13.1739 10.0148 13.1739Z" fill="#FFC02D"/>
<path id="Vector_4" d="M18.7464 15.2158L17.8896 13.7329C17.8296 13.6294 17.6968 13.5932 17.5928 13.6535C17.489 13.7135 17.4533 13.8465 17.5133 13.9503L18.3701 15.4332C18.4104 15.5027 18.4835 15.5419 18.5585 15.5419C18.5954 15.5419 18.6328 15.5326 18.667 15.5126C18.7707 15.4526 18.8064 15.3196 18.7464 15.2158Z" fill="#FFC02D"/>
<path id="Vector_5" d="M17.1011 12.802C16.9971 12.8617 16.9614 12.9947 17.0214 13.0985L17.0803 13.2008C17.1206 13.2707 17.1936 13.3098 17.2687 13.3098C17.3055 13.3098 17.3429 13.3005 17.3768 13.2805C17.4809 13.2208 17.5165 13.0878 17.4565 12.984L17.3977 12.8817C17.338 12.7776 17.2046 12.7417 17.1011 12.802Z" fill="#FFC02D"/>
<path id="Vector_6" d="M15.8119 12.887L15.3133 14.4174C15.1336 14.9739 14.6177 15.3478 14.0293 15.3478H12.4032C12.3046 15.3478 12.2032 15.3797 12.122 15.4406L12.0148 15.5188L14.1162 19.1652C14.2148 19.3304 14.4582 19.3044 14.5191 19.1246L15.293 16.8812C15.3278 16.7768 15.4322 16.7131 15.5394 16.7362L17.8727 17.1884C18.0582 17.2261 18.2032 17.0261 18.1046 16.8609L15.8119 12.887Z" fill="#FFC02D"/>
<path id="Vector_7" d="M7.62347 15.3478H6.00028C5.41478 15.3478 4.89883 14.9739 4.71622 14.4173L4.21478 12.8811L1.92202 16.8608C1.82637 17.026 1.9713 17.226 2.15391 17.1884L4.48724 16.7362C4.59738 16.713 4.70173 16.7768 4.73651 16.8811L5.51043 19.1246C5.5713 19.3043 5.81478 19.3304 5.91043 19.1652L8.01478 15.5159L7.90753 15.4376C7.82637 15.3797 7.72782 15.3478 7.62347 15.3478Z" fill="#FFC02D"/>
<path id="Vector_8" d="M12.1371 7.69023L10.8125 7.49777L10.22 6.29748C10.1356 6.12675 9.89217 6.12675 9.80782 6.29748L9.21536 7.49777L7.89072 7.69023C7.70232 7.71748 7.62695 7.94907 7.76347 8.08211L8.72203 9.01632L8.49565 10.3354C8.46347 10.5233 8.66058 10.6662 8.82898 10.5778L10.0136 9.95487L11.1983 10.5778C11.367 10.6665 11.5638 10.5233 11.5316 10.3354L11.3052 9.01632L12.2638 8.08211C12.4009 7.94907 12.3258 7.71748 12.1371 7.69023Z" fill="#FFC02D"/>
</g>
</g>
</svg>
