<svg width="10" height="10" viewBox="0 0 10 10" fill="none" xmlns="http://www.w3.org/2000/svg">
<path d="M5 10C5.98891 10 6.95561 9.70676 7.77785 9.15735C8.6001 8.60794 9.24096 7.82705 9.6194 6.91342C9.99784 5.99979 10.0969 4.99446 9.90393 4.02455C9.711 3.05465 9.2348 2.16373 8.53553 1.46447C7.83627 0.765206 6.94536 0.289002 5.97545 0.0960758C5.00555 -0.0968503 4.00021 0.00216643 3.08658 0.380605C2.17295 0.759043 1.39206 1.39991 0.842652 2.22215C0.293245 3.0444 0 4.0111 0 5C0.00132369 6.32568 0.528533 7.59668 1.46593 8.53407C2.40332 9.47147 3.67432 9.99868 5 10ZM5 1.66667C5.65927 1.66667 6.30374 1.86217 6.8519 2.22844C7.40006 2.59471 7.82731 3.1153 8.0796 3.72439C8.33189 4.33348 8.3979 5.0037 8.26928 5.6503C8.14067 6.29691 7.8232 6.89085 7.35702 7.35703C6.89085 7.8232 6.2969 8.14067 5.6503 8.26929C5.0037 8.3979 4.33348 8.33189 3.72439 8.0796C3.1153 7.82731 2.59471 7.40007 2.22843 6.8519C1.86216 6.30374 1.66667 5.65927 1.66667 5C1.66667 4.11595 2.01786 3.2681 2.64298 2.64298C3.2681 2.01786 4.11594 1.66667 5 1.66667Z" fill="#0D0A0B"/>
</svg>
