<svg width="205" height="32" viewBox="0 0 205 32" fill="none" xmlns="http://www.w3.org/2000/svg">
<g id="Group 61">
<line id="Line 6" x1="0.5" y1="0.5" x2="0.499999" y2="31.5" stroke="#BDBDBD" stroke-linecap="round"/>
<line id="Line 46" x1="0.5" y1="-0.5" x2="20.8333" y2="-0.5" transform="matrix(4.91753e-08 1 1 -3.88546e-08 120 5.33325)" stroke="#BDBDBD" stroke-linecap="round"/>
<line id="Line 26" x1="60.5" y1="4.05566" x2="60.5" y2="27.9446" stroke="#BDBDBD" stroke-linecap="round"/>
<line id="Line 47" x1="180.5" y1="4.05566" x2="180.5" y2="27.9446" stroke="#BDBDBD" stroke-linecap="round"/>
<line id="Line 16" x1="30.5" y1="2.27783" x2="30.5" y2="29.7223" stroke="#BDBDBD" stroke-linecap="round"/>
<line id="Line 48" x1="150.5" y1="2.27783" x2="150.5" y2="29.7223" stroke="#BDBDBD" stroke-linecap="round"/>
<line id="Line 27" x1="90.5" y1="5.83325" x2="90.5" y2="26.1666" stroke="#BDBDBD" stroke-linecap="round"/>
<line id="Line 11" x1="15.5" y1="0.5" x2="15.5" y2="31.5" stroke="#BDBDBD" stroke-linecap="round"/>
<line id="Line 50" x1="135.5" y1="0.5" x2="135.5" y2="31.5" stroke="#BDBDBD" stroke-linecap="round"/>
<line id="Line 28" x1="75.5" y1="4.05566" x2="75.5" y2="27.9446" stroke="#BDBDBD" stroke-linecap="round"/>
<line id="Line 51" x1="195.5" y1="4.05566" x2="195.5" y2="27.9446" stroke="#BDBDBD" stroke-linecap="round"/>
<line id="Line 17" x1="45.5" y1="0.5" x2="45.5" y2="31.5" stroke="#BDBDBD" stroke-linecap="round"/>
<line id="Line 52" x1="165.5" y1="0.5" x2="165.5" y2="31.5" stroke="#BDBDBD" stroke-linecap="round"/>
<line id="Line 29" x1="105.5" y1="4.05566" x2="105.5" y2="27.9446" stroke="#BDBDBD" stroke-linecap="round"/>
<line id="Line 7" x1="3.5" y1="6.72217" x2="3.5" y2="25.2777" stroke="#BDBDBD" stroke-linecap="round"/>
<line id="Line 54" x1="123.5" y1="6.72217" x2="123.5" y2="25.2777" stroke="#BDBDBD" stroke-linecap="round"/>
<line id="Line 30" x1="63.5" y1="8.5" x2="63.5" y2="23.5" stroke="#BDBDBD" stroke-linecap="round"/>
<line id="Line 55" x1="183.5" y1="8.5" x2="183.5" y2="23.5" stroke="#BDBDBD" stroke-linecap="round"/>
<line id="Line 18" x1="33.5" y1="6.72217" x2="33.5" y2="25.2777" stroke="#BDBDBD" stroke-linecap="round"/>
<line id="Line 56" x1="153.5" y1="6.72217" x2="153.5" y2="25.2777" stroke="#BDBDBD" stroke-linecap="round"/>
<line id="Line 31" x1="93.5" y1="8.5" x2="93.5" y2="23.5" stroke="#BDBDBD" stroke-linecap="round"/>
<line id="Line 12" x1="18.5" y1="6.72217" x2="18.5" y2="25.2777" stroke="#BDBDBD" stroke-linecap="round"/>
<line id="Line 58" x1="138.5" y1="6.72217" x2="138.5" y2="25.2777" stroke="#BDBDBD" stroke-linecap="round"/>
<line id="Line 32" x1="78.5" y1="8.5" x2="78.5" y2="23.5" stroke="#BDBDBD" stroke-linecap="round"/>
<line id="Line 59" x1="198.5" y1="8.5" x2="198.5" y2="23.5" stroke="#BDBDBD" stroke-linecap="round"/>
<line id="Line 19" x1="48.5" y1="6.72217" x2="48.5" y2="25.2777" stroke="#BDBDBD" stroke-linecap="round"/>
<line id="Line 60" x1="168.5" y1="6.72217" x2="168.5" y2="25.2777" stroke="#BDBDBD" stroke-linecap="round"/>
<line id="Line 33" x1="108.5" y1="8.5" x2="108.5" y2="23.5" stroke="#BDBDBD" stroke-linecap="round"/>
<line id="Line 8" x1="6.5" y1="4.05566" x2="6.5" y2="27.9446" stroke="#BDBDBD" stroke-linecap="round"/>
<line id="Line 62" x1="126.5" y1="4.05566" x2="126.5" y2="27.9446" stroke="#BDBDBD" stroke-linecap="round"/>
<line id="Line 34" x1="66.5" y1="6.72217" x2="66.5" y2="25.2777" stroke="#BDBDBD" stroke-linecap="round"/>
<line id="Line 63" x1="186.5" y1="6.72217" x2="186.5" y2="25.2777" stroke="#BDBDBD" stroke-linecap="round"/>
<line id="Line 20" x1="36.5" y1="4.05566" x2="36.5" y2="27.9446" stroke="#BDBDBD" stroke-linecap="round"/>
<line id="Line 64" x1="156.5" y1="4.05566" x2="156.5" y2="27.9446" stroke="#BDBDBD" stroke-linecap="round"/>
<line id="Line 35" x1="96.5" y1="6.72217" x2="96.5" y2="25.2777" stroke="#BDBDBD" stroke-linecap="round"/>
<line id="Line 13" x1="21.5" y1="4.05566" x2="21.5" y2="27.9446" stroke="#BDBDBD" stroke-linecap="round"/>
<line id="Line 66" x1="141.5" y1="4.05566" x2="141.5" y2="27.9446" stroke="#BDBDBD" stroke-linecap="round"/>
<line id="Line 36" x1="81.5" y1="6.72217" x2="81.5" y2="25.2777" stroke="#BDBDBD" stroke-linecap="round"/>
<line id="Line 67" x1="201.5" y1="6.72217" x2="201.5" y2="25.2777" stroke="#BDBDBD" stroke-linecap="round"/>
<line id="Line 21" x1="51.5" y1="4.05566" x2="51.5" y2="27.9446" stroke="#BDBDBD" stroke-linecap="round"/>
<line id="Line 68" x1="171.5" y1="4.05566" x2="171.5" y2="27.9446" stroke="#BDBDBD" stroke-linecap="round"/>
<line id="Line 37" x1="111.5" y1="6.72217" x2="111.5" y2="25.2777" stroke="#BDBDBD" stroke-linecap="round"/>
<line id="Line 9" x1="9.5" y1="6.72217" x2="9.5" y2="25.2777" stroke="#BDBDBD" stroke-linecap="round"/>
<line id="Line 70" x1="129.5" y1="6.72217" x2="129.5" y2="25.2777" stroke="#BDBDBD" stroke-linecap="round"/>
<line id="Line 38" x1="69.5" y1="8.5" x2="69.5" y2="23.5" stroke="#BDBDBD" stroke-linecap="round"/>
<line id="Line 71" x1="189.5" y1="8.5" x2="189.5" y2="23.5" stroke="#BDBDBD" stroke-linecap="round"/>
<line id="Line 22" x1="39.5" y1="6.72217" x2="39.5" y2="25.2777" stroke="#BDBDBD" stroke-linecap="round"/>
<line id="Line 72" x1="159.5" y1="6.72217" x2="159.5" y2="25.2777" stroke="#BDBDBD" stroke-linecap="round"/>
<line id="Line 39" x1="99.5" y1="8.5" x2="99.5" y2="23.5" stroke="#BDBDBD" stroke-linecap="round"/>
<line id="Line 14" x1="24.5" y1="6.72217" x2="24.5" y2="25.2777" stroke="#BDBDBD" stroke-linecap="round"/>
<line id="Line 74" x1="144.5" y1="6.72217" x2="144.5" y2="25.2777" stroke="#BDBDBD" stroke-linecap="round"/>
<line id="Line 40" x1="84.5" y1="8.5" x2="84.5" y2="23.5" stroke="#BDBDBD" stroke-linecap="round"/>
<line id="Line 75" x1="204.5" y1="8.5" x2="204.5" y2="23.5" stroke="#BDBDBD" stroke-linecap="round"/>
<line id="Line 23" x1="54.5" y1="6.72217" x2="54.5" y2="25.2777" stroke="#BDBDBD" stroke-linecap="round"/>
<line id="Line 76" x1="174.5" y1="6.72217" x2="174.5" y2="25.2777" stroke="#BDBDBD" stroke-linecap="round"/>
<line id="Line 41" x1="114.5" y1="8.5" x2="114.5" y2="23.5" stroke="#BDBDBD" stroke-linecap="round"/>
<line id="Line 10" x1="12.5" y1="2.27783" x2="12.5" y2="29.7223" stroke="#BDBDBD" stroke-linecap="round"/>
<line id="Line 78" x1="132.5" y1="2.27783" x2="132.5" y2="29.7223" stroke="#BDBDBD" stroke-linecap="round"/>
<line id="Line 42" x1="72.5" y1="5.83325" x2="72.5" y2="26.1666" stroke="#BDBDBD" stroke-linecap="round"/>
<line id="Line 79" x1="192.5" y1="5.83325" x2="192.5" y2="26.1666" stroke="#BDBDBD" stroke-linecap="round"/>
<line id="Line 24" x1="42.5" y1="2.27783" x2="42.5" y2="29.7223" stroke="#BDBDBD" stroke-linecap="round"/>
<line id="Line 80" x1="162.5" y1="2.27783" x2="162.5" y2="29.7223" stroke="#BDBDBD" stroke-linecap="round"/>
<line id="Line 43" x1="102.5" y1="5.83325" x2="102.5" y2="26.1666" stroke="#BDBDBD" stroke-linecap="round"/>
<line id="Line 15" x1="27.5" y1="9.38892" x2="27.5" y2="22.6111" stroke="#BDBDBD" stroke-linecap="round"/>
<line id="Line 82" x1="147.5" y1="9.38892" x2="147.5" y2="22.6111" stroke="#BDBDBD" stroke-linecap="round"/>
<line id="Line 44" x1="87.5" y1="11.1667" x2="87.5" y2="20.8334" stroke="#BDBDBD" stroke-linecap="round"/>
<line id="Line 25" x1="57.5" y1="9.38892" x2="57.5" y2="22.6111" stroke="#BDBDBD" stroke-linecap="round"/>
<line id="Line 84" x1="177.5" y1="9.38892" x2="177.5" y2="22.6111" stroke="#BDBDBD" stroke-linecap="round"/>
<line id="Line 45" x1="117.5" y1="11.1667" x2="117.5" y2="20.8334" stroke="#BDBDBD" stroke-linecap="round"/>
</g>
</svg>
