<svg width="20" height="20" viewBox="0 0 20 20" fill="none" xmlns="http://www.w3.org/2000/svg">
<g id="wallet 1" clip-path="url(#clip0_1103_9698)">
<g id="Group">
<g id="Group_2">
<g id="Group_3">
<path id="Vector" d="M19.0908 10.0839V7.27292C19.0908 6.31975 18.3514 5.54458 17.4173 5.46941L14.8068 0.909826C14.5649 0.488128 14.1743 0.186727 13.7069 0.0615729C13.2417 -0.062729 12.7552 0.00255401 12.3388 0.244894L3.38998 5.45475H1.81829C0.815563 5.45475 0.00012207 6.27015 0.00012207 7.27292V18.1818C0.00012207 19.1846 0.815521 20 1.81829 20H17.2726C18.2753 20 19.0908 19.1846 19.0908 18.1818V15.3709C19.6187 15.1826 19.9998 14.6828 19.9998 14.091V11.3638C19.9998 10.772 19.6187 10.2721 19.0908 10.0839ZM16.361 5.45475H12.3992L15.3706 3.72484L16.361 5.45475ZM14.9189 2.93594L10.5925 5.45475H8.7979L14.4702 2.15225L14.9189 2.93594ZM12.7964 1.03055C13.002 0.910252 13.2421 0.878293 13.4716 0.93957C13.7038 1.0017 13.8973 1.15174 14.0176 1.36169L14.0185 1.36336L6.99124 5.45475H5.19677L12.7964 1.03055ZM18.1817 18.1818C18.1817 18.683 17.7737 19.0909 17.2726 19.0909H1.81829C1.31716 19.0909 0.909227 18.683 0.909227 18.1818V7.27292C0.909227 6.77179 1.31716 6.36386 1.81829 6.36386H17.2726C17.7737 6.36386 18.1817 6.77179 18.1817 7.27292V10.0001H15.4544C13.9505 10.0001 12.7272 11.2235 12.7272 12.7274C12.7272 14.2313 13.9505 15.4546 15.4544 15.4546H18.1817V18.1818ZM19.0908 14.091C19.0908 14.3418 18.887 14.5455 18.6362 14.5455H15.4544C14.4517 14.5455 13.6363 13.7301 13.6363 12.7274C13.6363 11.7247 14.4517 10.9092 15.4544 10.9092H18.6362C18.887 10.9092 19.0908 11.1129 19.0908 11.3638V14.091Z" fill="black"/>
<path id="Vector_2" d="M15.4545 11.8184C14.9533 11.8184 14.5454 12.2263 14.5454 12.7274C14.5454 13.2285 14.9533 13.6365 15.4545 13.6365C15.9556 13.6365 16.3635 13.2285 16.3635 12.7274C16.3636 12.2263 15.9556 11.8184 15.4545 11.8184Z" fill="black"/>
</g>
</g>
</g>
</g>
<defs>
<clipPath id="clip0_1103_9698">
<rect width="20" height="20" fill="white"/>
</clipPath>
</defs>
</svg>
