<svg width="24" height="24" viewBox="0 0 24 24" fill="none" xmlns="http://www.w3.org/2000/svg">
<g clip-path="url(#clip0_132_1773)">
<path d="M22.909 12.1007V8.7275C22.909 7.5837 22.0218 6.6535 20.9009 6.56329L17.7683 1.09179C17.478 0.585754 17.0093 0.224073 16.4483 0.0738875C15.8901 -0.0752748 15.3063 0.00306481 14.8067 0.293873L4.06808 6.5457H2.18204C0.978774 6.5457 0.000244141 7.52418 0.000244141 8.7275V21.8182C0.000244141 23.0215 0.978722 24 2.18204 24H20.7272C21.9305 24 22.909 23.0215 22.909 21.8182V18.445C23.5425 18.2191 23.9999 17.6194 23.9999 16.9092V13.6365C23.9999 12.9263 23.5425 12.3266 22.909 12.1007ZM19.6333 6.5457H14.8791L18.4448 4.4698L19.6333 6.5457ZM17.9028 3.52313L12.7111 6.5457H10.5576L17.3643 2.5827L17.9028 3.52313ZM15.3558 1.23666C15.6025 1.0923 15.8906 1.05395 16.166 1.12748C16.4446 1.20204 16.6769 1.38209 16.8212 1.63403L16.8223 1.63603L8.38959 6.5457H6.23622L15.3558 1.23666ZM21.8181 21.8182C21.8181 22.4195 21.3286 22.9091 20.7272 22.9091H2.18204C1.58069 22.9091 1.09117 22.4195 1.09117 21.8182V8.7275C1.09117 8.12615 1.58069 7.63663 2.18204 7.63663H20.7272C21.3286 7.63663 21.8181 8.12615 21.8181 8.7275V12.0002H18.5454C16.7407 12.0002 15.2727 13.4682 15.2727 15.2728C15.2727 17.0775 16.7407 18.5455 18.5454 18.5455H21.8181V21.8182ZM22.909 16.9092C22.909 17.2101 22.6645 17.4546 22.3635 17.4546H18.5454C17.3421 17.4546 16.3636 16.4762 16.3636 15.2728C16.3636 14.0696 17.3421 13.091 18.5454 13.091H22.3635C22.6645 13.091 22.909 13.3355 22.909 13.6365V16.9092Z" fill="black"/>
<path d="M18.5455 14.1819C17.9441 14.1819 17.4546 14.6714 17.4546 15.2728C17.4546 15.8741 17.9441 16.3636 18.5455 16.3636C19.1468 16.3636 19.6363 15.8741 19.6363 15.2728C19.6364 14.6714 19.1469 14.1819 18.5455 14.1819Z" fill="black"/>
</g>
<defs>
<clipPath id="clip0_132_1773">
<rect width="24" height="24" fill="white"/>
</clipPath>
</defs>
</svg>
