<svg width="20" height="20" viewBox="0 0 20 20" fill="none" xmlns="http://www.w3.org/2000/svg">
<path d="M6.25417 20C4.74563 19.999 3.28834 19.4525 2.15121 18.4612C1.01409 17.4699 0.273863 16.1008 0.0671353 14.6065C-0.139593 13.1122 0.201125 11.5935 1.02642 10.3307C1.85171 9.06797 3.10588 8.1463 4.5575 7.73582C5.6126 7.43367 6.72941 7.41986 7.79167 7.69582L14.3817 1.10749C14.7315 0.755221 15.1478 0.475931 15.6064 0.285815C16.0651 0.0957 16.5569 -0.00145535 17.0533 -1.47282e-05C17.8346 0.000647298 18.5837 0.311311 19.1362 0.863775C19.6887 1.41624 19.9993 2.16535 20 2.94665C20.0013 3.44314 19.9042 3.93497 19.7142 4.39369C19.5242 4.85241 19.2452 5.26892 18.8933 5.61915L18.3333 6.17915C18.02 6.49035 17.5966 6.66551 17.155 6.66665H15.8333V7.49999C15.8333 7.94201 15.6577 8.36594 15.3452 8.6785C15.0326 8.99106 14.6087 9.16665 14.1667 9.16665H13.3333V10.4883C13.3339 10.7073 13.2911 10.9242 13.2072 11.1264C13.1234 11.3287 13.0003 11.5123 12.845 11.6667L12.3033 12.2083C12.5808 13.2701 12.5673 14.3869 12.2642 15.4417C11.9231 16.6433 11.2311 17.7158 10.2768 18.5218C9.32247 19.3278 8.1493 19.8306 6.9075 19.9658C6.69045 19.9884 6.47238 19.9998 6.25417 20ZM6.25417 9.16665C5.40096 9.16583 4.56446 9.40317 3.83882 9.85197C3.11319 10.3008 2.52723 10.9432 2.14692 11.707C1.7666 12.4707 1.60702 13.3255 1.68614 14.175C1.76527 15.0245 2.07995 15.8351 2.59476 16.5155C3.10958 17.1959 3.8041 17.7191 4.60013 18.0262C5.39616 18.3333 6.26211 18.412 7.10049 18.2537C7.93887 18.0953 8.7164 17.706 9.34556 17.1297C9.97472 16.5534 10.4305 15.813 10.6617 14.9917C10.9217 14.0888 10.8925 13.1271 10.5783 12.2417C10.5271 12.0938 10.5185 11.9344 10.5535 11.7819C10.5886 11.6294 10.6659 11.4898 10.7767 11.3792L11.6667 10.4883V9.16665C11.6667 8.72462 11.8423 8.3007 12.1548 7.98814C12.4674 7.67558 12.8913 7.49999 13.3333 7.49999H14.1667V6.66665C14.1667 6.22462 14.3423 5.8007 14.6548 5.48814C14.9674 5.17558 15.3913 4.99999 15.8333 4.99999H17.155L17.715 4.43999C17.9116 4.24428 18.0675 4.01154 18.1737 3.75522C18.2798 3.49889 18.3341 3.22408 18.3333 2.94665C18.3331 2.60739 18.1983 2.28207 17.9585 2.04209C17.7187 1.80212 17.3934 1.66709 17.0542 1.66665C16.7765 1.66597 16.5016 1.72034 16.2451 1.82662C15.9886 1.9329 15.7558 2.08897 15.56 2.28582L8.6175 9.22748C8.5067 9.33822 8.36694 9.41548 8.21424 9.45042C8.06154 9.48535 7.90209 9.47653 7.75417 9.42499C7.27089 9.25483 6.76235 9.16749 6.25 9.16665H6.25417ZM4.16667 15C4.16667 15.1648 4.21554 15.3259 4.30711 15.463C4.39868 15.6 4.52882 15.7068 4.6811 15.7699C4.83337 15.833 5.00092 15.8495 5.16257 15.8173C5.32423 15.7852 5.47271 15.7058 5.58925 15.5892C5.7058 15.4727 5.78517 15.3242 5.81732 15.1626C5.84947 15.0009 5.83297 14.8334 5.7699 14.6811C5.70683 14.5288 5.60002 14.3987 5.46297 14.3071C5.32593 14.2155 5.16482 14.1667 5 14.1667C4.77899 14.1667 4.56702 14.2544 4.41074 14.4107C4.25446 14.567 4.16667 14.779 4.16667 15Z" fill="#0D0A0B"/>
</svg>
